<?xml version="1.0" encoding="utf-8" standalone="no"?>
<!DOCTYPE svg PUBLIC "-//W3C//DTD SVG 1.1//EN"
  "http://www.w3.org/Graphics/SVG/1.1/DTD/svg11.dtd">
<svg xmlns:xlink="http://www.w3.org/1999/xlink" width="460.8pt" height="345.6pt" viewBox="0 0 460.8 345.6" xmlns="http://www.w3.org/2000/svg" version="1.1">
 <metadata>
  <rdf:RDF xmlns:dc="http://purl.org/dc/elements/1.1/" xmlns:cc="http://creativecommons.org/ns#" xmlns:rdf="http://www.w3.org/1999/02/22-rdf-syntax-ns#">
   <cc:Work>
    <dc:type rdf:resource="http://purl.org/dc/dcmitype/StillImage"/>
    <dc:date>2022-06-03T03:23:44.452023</dc:date>
    <dc:format>image/svg+xml</dc:format>
    <dc:creator>
     <cc:Agent>
      <dc:title>Matplotlib v3.5.2, https://matplotlib.org/</dc:title>
     </cc:Agent>
    </dc:creator>
   </cc:Work>
  </rdf:RDF>
 </metadata>
 <defs>
  <style type="text/css">*{stroke-linejoin: round; stroke-linecap: butt}</style>
 </defs>
 <g id="figure_1">
  <g id="patch_1">
   <path d="M 0 345.6 
L 460.8 345.6 
L 460.8 0 
L 0 0 
z
" style="fill: #ffffff"/>
  </g>
  <g id="axes_1">
   <g id="patch_2">
    <path d="M 57.6 119.740235 
L 414.72 119.740235 
L 414.72 41.472 
L 57.6 41.472 
z
" style="fill: #e5e5e5"/>
   </g>
   <g id="matplotlib.axis_1">
    <g id="xtick_1">
     <g id="line2d_1">
      <defs>
       <path id="md4688f149b" d="M 0 0 
L 0 3.5 
" style="stroke: #555555; stroke-width: 0.8"/>
      </defs>
      <g>
       <use xlink:href="#md4688f149b" x="57.6" y="119.740235" style="fill: #555555; stroke: #555555; stroke-width: 0.8"/>
      </g>
     </g>
     <g id="text_1">
      <!-- 0.0 -->
      <g transform="translate(49.648438 134.338673)scale(0.1 -0.1)">
       <defs>
        <path id="DejaVuSans-30" d="M 2034 4250 
Q 1547 4250 1301 3770 
Q 1056 3291 1056 2328 
Q 1056 1369 1301 889 
Q 1547 409 2034 409 
Q 2525 409 2770 889 
Q 3016 1369 3016 2328 
Q 3016 3291 2770 3770 
Q 2525 4250 2034 4250 
z
M 2034 4750 
Q 2819 4750 3233 4129 
Q 3647 3509 3647 2328 
Q 3647 1150 3233 529 
Q 2819 -91 2034 -91 
Q 1250 -91 836 529 
Q 422 1150 422 2328 
Q 422 3509 836 4129 
Q 1250 4750 2034 4750 
z
" transform="scale(0.015625)"/>
        <path id="DejaVuSans-2e" d="M 684 794 
L 1344 794 
L 1344 0 
L 684 0 
L 684 794 
z
" transform="scale(0.015625)"/>
       </defs>
       <use xlink:href="#DejaVuSans-30"/>
       <use xlink:href="#DejaVuSans-2e" x="63.623047"/>
       <use xlink:href="#DejaVuSans-30" x="95.410156"/>
      </g>
     </g>
    </g>
    <g id="xtick_2">
     <g id="line2d_2">
      <g>
       <use xlink:href="#md4688f149b" x="129.024" y="119.740235" style="fill: #555555; stroke: #555555; stroke-width: 0.8"/>
      </g>
     </g>
     <g id="text_2">
      <!-- 0.2 -->
      <g transform="translate(121.072438 134.338673)scale(0.1 -0.1)">
       <defs>
        <path id="DejaVuSans-32" d="M 1228 531 
L 3431 531 
L 3431 0 
L 469 0 
L 469 531 
Q 828 903 1448 1529 
Q 2069 2156 2228 2338 
Q 2531 2678 2651 2914 
Q 2772 3150 2772 3378 
Q 2772 3750 2511 3984 
Q 2250 4219 1831 4219 
Q 1534 4219 1204 4116 
Q 875 4013 500 3803 
L 500 4441 
Q 881 4594 1212 4672 
Q 1544 4750 1819 4750 
Q 2544 4750 2975 4387 
Q 3406 4025 3406 3419 
Q 3406 3131 3298 2873 
Q 3191 2616 2906 2266 
Q 2828 2175 2409 1742 
Q 1991 1309 1228 531 
z
" transform="scale(0.015625)"/>
       </defs>
       <use xlink:href="#DejaVuSans-30"/>
       <use xlink:href="#DejaVuSans-2e" x="63.623047"/>
       <use xlink:href="#DejaVuSans-32" x="95.410156"/>
      </g>
     </g>
    </g>
    <g id="xtick_3">
     <g id="line2d_3">
      <g>
       <use xlink:href="#md4688f149b" x="200.448" y="119.740235" style="fill: #555555; stroke: #555555; stroke-width: 0.8"/>
      </g>
     </g>
     <g id="text_3">
      <!-- 0.4 -->
      <g transform="translate(192.496438 134.338673)scale(0.1 -0.1)">
       <defs>
        <path id="DejaVuSans-34" d="M 2419 4116 
L 825 1625 
L 2419 1625 
L 2419 4116 
z
M 2253 4666 
L 3047 4666 
L 3047 1625 
L 3713 1625 
L 3713 1100 
L 3047 1100 
L 3047 0 
L 2419 0 
L 2419 1100 
L 313 1100 
L 313 1709 
L 2253 4666 
z
" transform="scale(0.015625)"/>
       </defs>
       <use xlink:href="#DejaVuSans-30"/>
       <use xlink:href="#DejaVuSans-2e" x="63.623047"/>
       <use xlink:href="#DejaVuSans-34" x="95.410156"/>
      </g>
     </g>
    </g>
    <g id="xtick_4">
     <g id="line2d_4">
      <g>
       <use xlink:href="#md4688f149b" x="271.872" y="119.740235" style="fill: #555555; stroke: #555555; stroke-width: 0.8"/>
      </g>
     </g>
     <g id="text_4">
      <!-- 0.6 -->
      <g transform="translate(263.920438 134.338673)scale(0.1 -0.1)">
       <defs>
        <path id="DejaVuSans-36" d="M 2113 2584 
Q 1688 2584 1439 2293 
Q 1191 2003 1191 1497 
Q 1191 994 1439 701 
Q 1688 409 2113 409 
Q 2538 409 2786 701 
Q 3034 994 3034 1497 
Q 3034 2003 2786 2293 
Q 2538 2584 2113 2584 
z
M 3366 4563 
L 3366 3988 
Q 3128 4100 2886 4159 
Q 2644 4219 2406 4219 
Q 1781 4219 1451 3797 
Q 1122 3375 1075 2522 
Q 1259 2794 1537 2939 
Q 1816 3084 2150 3084 
Q 2853 3084 3261 2657 
Q 3669 2231 3669 1497 
Q 3669 778 3244 343 
Q 2819 -91 2113 -91 
Q 1303 -91 875 529 
Q 447 1150 447 2328 
Q 447 3434 972 4092 
Q 1497 4750 2381 4750 
Q 2619 4750 2861 4703 
Q 3103 4656 3366 4563 
z
" transform="scale(0.015625)"/>
       </defs>
       <use xlink:href="#DejaVuSans-30"/>
       <use xlink:href="#DejaVuSans-2e" x="63.623047"/>
       <use xlink:href="#DejaVuSans-36" x="95.410156"/>
      </g>
     </g>
    </g>
    <g id="xtick_5">
     <g id="line2d_5">
      <g>
       <use xlink:href="#md4688f149b" x="343.296" y="119.740235" style="fill: #555555; stroke: #555555; stroke-width: 0.8"/>
      </g>
     </g>
     <g id="text_5">
      <!-- 0.8 -->
      <g transform="translate(335.344438 134.338673)scale(0.1 -0.1)">
       <defs>
        <path id="DejaVuSans-38" d="M 2034 2216 
Q 1584 2216 1326 1975 
Q 1069 1734 1069 1313 
Q 1069 891 1326 650 
Q 1584 409 2034 409 
Q 2484 409 2743 651 
Q 3003 894 3003 1313 
Q 3003 1734 2745 1975 
Q 2488 2216 2034 2216 
z
M 1403 2484 
Q 997 2584 770 2862 
Q 544 3141 544 3541 
Q 544 4100 942 4425 
Q 1341 4750 2034 4750 
Q 2731 4750 3128 4425 
Q 3525 4100 3525 3541 
Q 3525 3141 3298 2862 
Q 3072 2584 2669 2484 
Q 3125 2378 3379 2068 
Q 3634 1759 3634 1313 
Q 3634 634 3220 271 
Q 2806 -91 2034 -91 
Q 1263 -91 848 271 
Q 434 634 434 1313 
Q 434 1759 690 2068 
Q 947 2378 1403 2484 
z
M 1172 3481 
Q 1172 3119 1398 2916 
Q 1625 2713 2034 2713 
Q 2441 2713 2670 2916 
Q 2900 3119 2900 3481 
Q 2900 3844 2670 4047 
Q 2441 4250 2034 4250 
Q 1625 4250 1398 4047 
Q 1172 3844 1172 3481 
z
" transform="scale(0.015625)"/>
       </defs>
       <use xlink:href="#DejaVuSans-30"/>
       <use xlink:href="#DejaVuSans-2e" x="63.623047"/>
       <use xlink:href="#DejaVuSans-38" x="95.410156"/>
      </g>
     </g>
    </g>
    <g id="xtick_6">
     <g id="line2d_6">
      <g>
       <use xlink:href="#md4688f149b" x="414.72" y="119.740235" style="fill: #555555; stroke: #555555; stroke-width: 0.8"/>
      </g>
     </g>
     <g id="text_6">
      <!-- 1.0 -->
      <g transform="translate(406.768438 134.338673)scale(0.1 -0.1)">
       <defs>
        <path id="DejaVuSans-31" d="M 794 531 
L 1825 531 
L 1825 4091 
L 703 3866 
L 703 4441 
L 1819 4666 
L 2450 4666 
L 2450 531 
L 3481 531 
L 3481 0 
L 794 0 
L 794 531 
z
" transform="scale(0.015625)"/>
       </defs>
       <use xlink:href="#DejaVuSans-31"/>
       <use xlink:href="#DejaVuSans-2e" x="63.623047"/>
       <use xlink:href="#DejaVuSans-30" x="95.410156"/>
      </g>
     </g>
    </g>
   </g>
   <g id="matplotlib.axis_2">
    <g id="ytick_1">
     <g id="line2d_7">
      <defs>
       <path id="mbcfac8b89c" d="M 0 0 
L -3.5 0 
" style="stroke: #555555; stroke-width: 0.8"/>
      </defs>
      <g>
       <use xlink:href="#mbcfac8b89c" x="57.6" y="115.700817" style="fill: #555555; stroke: #555555; stroke-width: 0.8"/>
      </g>
     </g>
     <g id="text_7">
      <!-- $\mathdefault{10^{2}}$ -->
      <g transform="translate(33 119.500036)scale(0.1 -0.1)">
       <use xlink:href="#DejaVuSans-31" transform="translate(0 0.765625)"/>
       <use xlink:href="#DejaVuSans-30" transform="translate(63.623047 0.765625)"/>
       <use xlink:href="#DejaVuSans-32" transform="translate(128.203125 39.046875)scale(0.7)"/>
      </g>
     </g>
    </g>
    <g id="ytick_2">
     <g id="line2d_8">
      <g>
       <use xlink:href="#mbcfac8b89c" x="57.6" y="41.472" style="fill: #555555; stroke: #555555; stroke-width: 0.8"/>
      </g>
     </g>
     <g id="text_8">
      <!-- $\mathdefault{10^{3}}$ -->
      <g transform="translate(33 45.271219)scale(0.1 -0.1)">
       <defs>
        <path id="DejaVuSans-33" d="M 2597 2516 
Q 3050 2419 3304 2112 
Q 3559 1806 3559 1356 
Q 3559 666 3084 287 
Q 2609 -91 1734 -91 
Q 1441 -91 1130 -33 
Q 819 25 488 141 
L 488 750 
Q 750 597 1062 519 
Q 1375 441 1716 441 
Q 2309 441 2620 675 
Q 2931 909 2931 1356 
Q 2931 1769 2642 2001 
Q 2353 2234 1838 2234 
L 1294 2234 
L 1294 2753 
L 1863 2753 
Q 2328 2753 2575 2939 
Q 2822 3125 2822 3475 
Q 2822 3834 2567 4026 
Q 2313 4219 1838 4219 
Q 1578 4219 1281 4162 
Q 984 4106 628 3988 
L 628 4550 
Q 988 4650 1302 4700 
Q 1616 4750 1894 4750 
Q 2613 4750 3031 4423 
Q 3450 4097 3450 3541 
Q 3450 3153 3228 2886 
Q 3006 2619 2597 2516 
z
" transform="scale(0.015625)"/>
       </defs>
       <use xlink:href="#DejaVuSans-31" transform="translate(0 0.765625)"/>
       <use xlink:href="#DejaVuSans-30" transform="translate(63.623047 0.765625)"/>
       <use xlink:href="#DejaVuSans-33" transform="translate(128.203125 39.046875)scale(0.7)"/>
      </g>
     </g>
    </g>
   </g>
   <g id="patch_3">
    <path d="M 57.6 119.740235 
L 57.6 41.472 
L 414.72 41.472 
L 414.72 119.740235 
z
" clip-path="url(#p305305c3da)" style="fill: #e07a5f"/>
   </g>
   <g id="patch_4">
    <path d="M 414.72 119.740235 
L 414.72 41.472 
L 414.72 41.472 
z
" clip-path="url(#p305305c3da)" style="fill: #e07a5f"/>
   </g>
   <g id="line2d_9">
    <path d="M 57.6 84.041391 
L 57.957477 84.162356 
L 58.314955 84.162356 
L 58.672432 84.283776 
L 59.02991 84.283776 
L 59.387387 84.405656 
L 59.744865 84.405656 
L 60.102342 84.527999 
L 60.45982 84.527999 
L 61.174775 84.774085 
L 61.532252 84.774085 
L 61.88973 84.897836 
L 62.247207 84.897836 
L 62.604685 85.022064 
L 62.962162 85.022064 
L 63.31964 85.146773 
L 63.677117 85.146773 
L 64.034595 85.271966 
L 64.392072 85.271966 
L 64.74955 85.397647 
L 65.107027 85.397647 
L 65.464505 85.52382 
L 65.821982 85.52382 
L 66.179459 85.650489 
L 66.536937 85.650489 
L 66.894414 85.777658 
L 67.251892 85.777658 
L 67.609369 85.90533 
L 67.966847 85.90533 
L 68.324324 86.033509 
L 68.681802 86.033509 
L 69.039279 86.162201 
L 69.396757 86.162201 
L 69.754234 86.291408 
L 70.111712 86.291408 
L 70.469189 86.421135 
L 71.184144 86.421135 
L 71.541622 86.551387 
L 71.899099 86.551387 
L 72.256577 86.682166 
L 72.614054 86.682166 
L 72.971532 86.813479 
L 73.329009 86.813479 
L 73.686486 86.945328 
L 74.043964 86.945328 
L 74.401441 87.077719 
L 74.758919 87.077719 
L 75.116396 87.210656 
L 75.831351 87.210656 
L 76.188829 87.344144 
L 76.546306 87.344144 
L 76.903784 87.478186 
L 77.261261 87.478186 
L 77.618739 87.612788 
L 78.333694 87.612788 
L 78.691171 87.747955 
L 79.048649 87.747955 
L 79.406126 87.883691 
L 79.763604 87.883691 
L 80.121081 88.02 
L 80.836036 88.02 
L 81.193514 88.156888 
L 81.550991 88.156888 
L 81.908468 88.294361 
L 82.265946 88.294361 
L 82.623423 88.432421 
L 83.338378 88.432421 
L 83.695856 88.571076 
L 84.053333 88.571076 
L 84.410811 88.71033 
L 85.125766 88.71033 
L 85.483243 88.850188 
L 85.840721 88.850188 
L 86.198198 88.990655 
L 86.913153 88.990655 
L 87.270631 89.131737 
L 87.628108 89.131737 
L 87.985586 89.273439 
L 88.700541 89.273439 
L 89.058018 89.415766 
L 89.772973 89.415766 
L 90.13045 89.558725 
L 90.487928 89.558725 
L 90.845405 89.702321 
L 91.56036 89.702321 
L 91.917838 89.846559 
L 92.632793 89.846559 
L 92.99027 89.991445 
L 93.347748 89.991445 
L 93.705225 90.136986 
L 94.42018 90.136986 
L 94.777658 90.283186 
L 95.492613 90.283186 
L 95.85009 90.430053 
L 96.565045 90.430053 
L 96.922523 90.577592 
L 97.28 90.577592 
L 97.637477 90.725809 
L 98.352432 90.725809 
L 98.70991 90.874711 
L 99.424865 90.874711 
L 99.782342 91.024303 
L 100.497297 91.024303 
L 100.854775 91.174593 
L 101.56973 91.174593 
L 101.927207 91.325587 
L 102.642162 91.325587 
L 102.99964 91.477292 
L 103.714595 91.477292 
L 104.072072 91.629714 
L 104.787027 91.629714 
L 105.144505 91.78286 
L 105.859459 91.78286 
L 106.216937 91.936737 
L 106.931892 91.936737 
L 107.289369 92.091352 
L 108.004324 92.091352 
L 108.361802 92.246712 
L 109.076757 92.246712 
L 109.434234 92.402824 
L 110.506667 92.402824 
L 110.864144 92.559697 
L 111.579099 92.559697 
L 111.936577 92.717336 
L 112.651532 92.717336 
L 113.009009 92.87575 
L 113.723964 92.87575 
L 114.081441 93.034946 
L 115.153874 93.034946 
L 115.511351 93.194932 
L 116.226306 93.194932 
L 116.583784 93.355716 
L 117.298739 93.355716 
L 117.656216 93.517307 
L 118.728649 93.517307 
L 119.086126 93.679711 
L 119.801081 93.679711 
L 120.158559 93.842937 
L 121.230991 93.842937 
L 121.588468 94.006994 
L 122.303423 94.006994 
L 122.660901 94.171891 
L 123.733333 94.171891 
L 124.090811 94.337635 
L 125.163243 94.337635 
L 125.520721 94.504236 
L 126.235676 94.504236 
L 126.593153 94.671702 
L 127.665586 94.671702 
L 128.023063 94.840043 
L 129.095495 94.840043 
L 129.452973 95.009267 
L 130.525405 95.009267 
L 130.882883 95.179384 
L 131.597838 95.179384 
L 131.955315 95.350404 
L 133.027748 95.350404 
L 133.385225 95.522336 
L 134.457658 95.522336 
L 134.815135 95.69519 
L 135.887568 95.69519 
L 136.245045 95.868976 
L 137.317477 95.868976 
L 137.674955 96.043703 
L 138.747387 96.043703 
L 139.104865 96.219383 
L 140.534775 96.219383 
L 140.892252 96.396025 
L 141.964685 96.396025 
L 142.322162 96.573641 
L 143.394595 96.573641 
L 143.752072 96.752241 
L 144.824505 96.752241 
L 145.181982 96.931836 
L 146.611892 96.931836 
L 146.969369 97.112436 
L 148.041802 97.112436 
L 148.399279 97.294055 
L 149.471712 97.294055 
L 149.829189 97.476702 
L 151.259099 97.476702 
L 151.616577 97.66039 
L 152.689009 97.66039 
L 153.046486 97.845131 
L 154.476396 97.845131 
L 154.833874 98.030936 
L 156.263784 98.030936 
L 156.621261 98.217819 
L 157.693694 98.217819 
L 158.051171 98.405791 
L 159.481081 98.405791 
L 159.838559 98.594866 
L 161.268468 98.594866 
L 161.625946 98.785056 
L 163.055856 98.785056 
L 163.413333 98.976375 
L 164.843243 98.976375 
L 165.200721 99.168837 
L 166.630631 99.168837 
L 166.988108 99.362454 
L 168.418018 99.362454 
L 168.775495 99.557241 
L 170.205405 99.557241 
L 170.562883 99.753212 
L 171.992793 99.753212 
L 172.35027 99.950382 
L 174.137658 99.950382 
L 174.495135 100.148765 
L 175.925045 100.148765 
L 176.282523 100.348377 
L 178.06991 100.348377 
L 178.427387 100.549232 
L 179.857297 100.549232 
L 180.214775 100.751347 
L 182.002162 100.751347 
L 182.35964 100.954736 
L 183.78955 100.954736 
L 184.147027 101.159417 
L 185.934414 101.159417 
L 186.291892 101.365406 
L 188.079279 101.365406 
L 188.436757 101.57272 
L 190.224144 101.57272 
L 190.581622 101.781376 
L 192.369009 101.781376 
L 192.726486 101.99139 
L 194.513874 101.99139 
L 194.871351 102.202782 
L 196.658739 102.202782 
L 197.016216 102.41557 
L 198.803604 102.41557 
L 199.161081 102.629771 
L 201.305946 102.629771 
L 201.663423 102.845405 
L 203.450811 102.845405 
L 203.808288 103.062491 
L 205.595676 103.062491 
L 205.953153 103.281049 
L 208.098018 103.281049 
L 208.455495 103.501099 
L 210.60036 103.501099 
L 210.957838 103.722661 
L 213.102703 103.722661 
L 213.46018 103.945756 
L 215.247568 103.945756 
L 215.605045 104.170407 
L 217.74991 104.170407 
L 218.107387 104.396633 
L 220.60973 104.396633 
L 220.967207 104.624459 
L 223.112072 104.624459 
L 223.46955 104.853906 
L 225.614414 104.853906 
L 225.971892 105.084997 
L 228.474234 105.084997 
L 228.831712 105.317758 
L 230.976577 105.317758 
L 231.334054 105.552211 
L 233.836396 105.552211 
L 234.193874 105.788382 
L 236.696216 105.788382 
L 237.053694 106.026295 
L 239.556036 106.026295 
L 239.913514 106.265978 
L 242.415856 106.265978 
L 242.773333 106.507456 
L 245.275676 106.507456 
L 245.633153 106.750757 
L 248.135495 106.750757 
L 248.492973 106.995907 
L 250.995315 106.995907 
L 251.352793 107.242937 
L 254.212613 107.242937 
L 254.57009 107.491874 
L 257.42991 107.491874 
L 257.787387 107.742748 
L 260.647207 107.742748 
L 261.004685 107.995589 
L 263.864505 107.995589 
L 264.221982 108.25043 
L 267.081802 108.25043 
L 267.439279 108.507301 
L 270.299099 108.507301 
L 270.656577 108.766236 
L 273.516396 108.766236 
L 273.873874 109.027267 
L 277.091171 109.027267 
L 277.448649 109.290429 
L 280.665946 109.290429 
L 281.023423 109.555757 
L 284.240721 109.555757 
L 284.598198 109.823287 
L 287.815495 109.823287 
L 288.172973 110.093055 
L 291.39027 110.093055 
L 291.747748 110.365101 
L 295.322523 110.365101 
L 295.68 110.639461 
L 299.254775 110.639461 
L 299.612252 110.916177 
L 302.82955 110.916177 
L 303.187027 111.195288 
L 306.761802 111.195288 
L 307.119279 111.476837 
L 311.051532 111.476837 
L 311.409009 111.760867 
L 314.983784 111.760867 
L 315.341261 112.047421 
L 319.273514 112.047421 
L 319.630991 112.336546 
L 323.563243 112.336546 
L 323.920721 112.628287 
L 327.852973 112.628287 
L 328.21045 112.922692 
L 332.142703 112.922692 
L 332.50018 113.219811 
L 336.78991 113.219811 
L 337.147387 113.519694 
L 341.437117 113.519694 
L 341.794595 113.822392 
L 346.084324 113.822392 
L 346.441802 114.12796 
L 350.731532 114.12796 
L 351.089009 114.436452 
L 355.736216 114.436452 
L 356.093694 114.747925 
L 360.740901 114.747925 
L 361.098378 115.062436 
L 365.745586 115.062436 
L 366.103063 115.380046 
L 371.107748 115.380046 
L 371.465225 115.700817 
L 376.46991 115.700817 
L 376.827387 116.024811 
L 381.832072 116.024811 
L 382.18955 116.352095 
L 387.194234 116.352095 
L 387.551712 116.682735 
L 392.913874 116.682735 
L 393.271351 117.016802 
L 398.633514 117.016802 
L 398.990991 117.354367 
L 404.710631 117.354367 
L 405.068108 117.695505 
L 410.43027 117.695505 
L 410.787748 118.04029 
L 414.72 118.04029 
L 414.72 118.04029 
" clip-path="url(#p305305c3da)" style="fill: none; stroke: #000000; stroke-width: 2; stroke-linecap: square"/>
   </g>
   <g id="line2d_10">
    <path d="M 414.72 119.740235 
L 414.72 41.472 
" clip-path="url(#p305305c3da)" style="fill: none; stroke: #000000; stroke-opacity: 0.1; stroke-width: 1.5; stroke-linecap: square"/>
   </g>
   <g id="patch_5">
    <path d="M 57.6 119.740235 
L 57.6 41.472 
" style="fill: none; stroke: #ffffff; stroke-linejoin: miter; stroke-linecap: square"/>
   </g>
   <g id="patch_6">
    <path d="M 414.72 119.740235 
L 414.72 41.472 
" style="fill: none; stroke: #ffffff; stroke-linejoin: miter; stroke-linecap: square"/>
   </g>
   <g id="patch_7">
    <path d="M 57.6 119.740235 
L 414.72 119.740235 
" style="fill: none; stroke: #ffffff; stroke-linejoin: miter; stroke-linecap: square"/>
   </g>
   <g id="patch_8">
    <path d="M 57.6 41.472 
L 414.72 41.472 
" style="fill: none; stroke: #ffffff; stroke-linejoin: miter; stroke-linecap: square"/>
   </g>
  </g>
 </g>
 <defs>
  <clipPath id="p305305c3da">
   <rect x="57.6" y="41.472" width="357.12" height="78.268235"/>
  </clipPath>
 </defs>
</svg>
