<?xml version="1.0" encoding="utf-8" standalone="no"?>
<!DOCTYPE svg PUBLIC "-//W3C//DTD SVG 1.1//EN"
  "http://www.w3.org/Graphics/SVG/1.1/DTD/svg11.dtd">
<svg xmlns:xlink="http://www.w3.org/1999/xlink" width="460.8pt" height="345.6pt" viewBox="0 0 460.8 345.6" xmlns="http://www.w3.org/2000/svg" version="1.1">
 <metadata>
  <rdf:RDF xmlns:dc="http://purl.org/dc/elements/1.1/" xmlns:cc="http://creativecommons.org/ns#" xmlns:rdf="http://www.w3.org/1999/02/22-rdf-syntax-ns#">
   <cc:Work>
    <dc:type rdf:resource="http://purl.org/dc/dcmitype/StillImage"/>
    <dc:date>2022-06-03T03:28:09.354692</dc:date>
    <dc:format>image/svg+xml</dc:format>
    <dc:creator>
     <cc:Agent>
      <dc:title>Matplotlib v3.5.2, https://matplotlib.org/</dc:title>
     </cc:Agent>
    </dc:creator>
   </cc:Work>
  </rdf:RDF>
 </metadata>
 <defs>
  <style type="text/css">*{stroke-linejoin: round; stroke-linecap: butt}</style>
 </defs>
 <g id="figure_1">
  <g id="patch_1">
   <path d="M 0 345.6 
L 460.8 345.6 
L 460.8 0 
L 0 0 
z
" style="fill: #ffffff"/>
  </g>
  <g id="axes_1">
   <g id="patch_2">
    <path d="M 57.6 119.740235 
L 414.72 119.740235 
L 414.72 41.472 
L 57.6 41.472 
z
" style="fill: #e5e5e5"/>
   </g>
   <g id="matplotlib.axis_1">
    <g id="xtick_1">
     <g id="line2d_1">
      <defs>
       <path id="mdc69fe83f5" d="M 0 0 
L 0 3.5 
" style="stroke: #555555; stroke-width: 0.8"/>
      </defs>
      <g>
       <use xlink:href="#mdc69fe83f5" x="57.6" y="119.740235" style="fill: #555555; stroke: #555555; stroke-width: 0.8"/>
      </g>
     </g>
     <g id="text_1">
      <!-- 0.0 -->
      <g transform="translate(49.648438 134.338673)scale(0.1 -0.1)">
       <defs>
        <path id="DejaVuSans-30" d="M 2034 4250 
Q 1547 4250 1301 3770 
Q 1056 3291 1056 2328 
Q 1056 1369 1301 889 
Q 1547 409 2034 409 
Q 2525 409 2770 889 
Q 3016 1369 3016 2328 
Q 3016 3291 2770 3770 
Q 2525 4250 2034 4250 
z
M 2034 4750 
Q 2819 4750 3233 4129 
Q 3647 3509 3647 2328 
Q 3647 1150 3233 529 
Q 2819 -91 2034 -91 
Q 1250 -91 836 529 
Q 422 1150 422 2328 
Q 422 3509 836 4129 
Q 1250 4750 2034 4750 
z
" transform="scale(0.015625)"/>
        <path id="DejaVuSans-2e" d="M 684 794 
L 1344 794 
L 1344 0 
L 684 0 
L 684 794 
z
" transform="scale(0.015625)"/>
       </defs>
       <use xlink:href="#DejaVuSans-30"/>
       <use xlink:href="#DejaVuSans-2e" x="63.623047"/>
       <use xlink:href="#DejaVuSans-30" x="95.410156"/>
      </g>
     </g>
    </g>
    <g id="xtick_2">
     <g id="line2d_2">
      <g>
       <use xlink:href="#mdc69fe83f5" x="129.024" y="119.740235" style="fill: #555555; stroke: #555555; stroke-width: 0.8"/>
      </g>
     </g>
     <g id="text_2">
      <!-- 0.2 -->
      <g transform="translate(121.072438 134.338673)scale(0.1 -0.1)">
       <defs>
        <path id="DejaVuSans-32" d="M 1228 531 
L 3431 531 
L 3431 0 
L 469 0 
L 469 531 
Q 828 903 1448 1529 
Q 2069 2156 2228 2338 
Q 2531 2678 2651 2914 
Q 2772 3150 2772 3378 
Q 2772 3750 2511 3984 
Q 2250 4219 1831 4219 
Q 1534 4219 1204 4116 
Q 875 4013 500 3803 
L 500 4441 
Q 881 4594 1212 4672 
Q 1544 4750 1819 4750 
Q 2544 4750 2975 4387 
Q 3406 4025 3406 3419 
Q 3406 3131 3298 2873 
Q 3191 2616 2906 2266 
Q 2828 2175 2409 1742 
Q 1991 1309 1228 531 
z
" transform="scale(0.015625)"/>
       </defs>
       <use xlink:href="#DejaVuSans-30"/>
       <use xlink:href="#DejaVuSans-2e" x="63.623047"/>
       <use xlink:href="#DejaVuSans-32" x="95.410156"/>
      </g>
     </g>
    </g>
    <g id="xtick_3">
     <g id="line2d_3">
      <g>
       <use xlink:href="#mdc69fe83f5" x="200.448" y="119.740235" style="fill: #555555; stroke: #555555; stroke-width: 0.8"/>
      </g>
     </g>
     <g id="text_3">
      <!-- 0.4 -->
      <g transform="translate(192.496438 134.338673)scale(0.1 -0.1)">
       <defs>
        <path id="DejaVuSans-34" d="M 2419 4116 
L 825 1625 
L 2419 1625 
L 2419 4116 
z
M 2253 4666 
L 3047 4666 
L 3047 1625 
L 3713 1625 
L 3713 1100 
L 3047 1100 
L 3047 0 
L 2419 0 
L 2419 1100 
L 313 1100 
L 313 1709 
L 2253 4666 
z
" transform="scale(0.015625)"/>
       </defs>
       <use xlink:href="#DejaVuSans-30"/>
       <use xlink:href="#DejaVuSans-2e" x="63.623047"/>
       <use xlink:href="#DejaVuSans-34" x="95.410156"/>
      </g>
     </g>
    </g>
    <g id="xtick_4">
     <g id="line2d_4">
      <g>
       <use xlink:href="#mdc69fe83f5" x="271.872" y="119.740235" style="fill: #555555; stroke: #555555; stroke-width: 0.8"/>
      </g>
     </g>
     <g id="text_4">
      <!-- 0.6 -->
      <g transform="translate(263.920438 134.338673)scale(0.1 -0.1)">
       <defs>
        <path id="DejaVuSans-36" d="M 2113 2584 
Q 1688 2584 1439 2293 
Q 1191 2003 1191 1497 
Q 1191 994 1439 701 
Q 1688 409 2113 409 
Q 2538 409 2786 701 
Q 3034 994 3034 1497 
Q 3034 2003 2786 2293 
Q 2538 2584 2113 2584 
z
M 3366 4563 
L 3366 3988 
Q 3128 4100 2886 4159 
Q 2644 4219 2406 4219 
Q 1781 4219 1451 3797 
Q 1122 3375 1075 2522 
Q 1259 2794 1537 2939 
Q 1816 3084 2150 3084 
Q 2853 3084 3261 2657 
Q 3669 2231 3669 1497 
Q 3669 778 3244 343 
Q 2819 -91 2113 -91 
Q 1303 -91 875 529 
Q 447 1150 447 2328 
Q 447 3434 972 4092 
Q 1497 4750 2381 4750 
Q 2619 4750 2861 4703 
Q 3103 4656 3366 4563 
z
" transform="scale(0.015625)"/>
       </defs>
       <use xlink:href="#DejaVuSans-30"/>
       <use xlink:href="#DejaVuSans-2e" x="63.623047"/>
       <use xlink:href="#DejaVuSans-36" x="95.410156"/>
      </g>
     </g>
    </g>
    <g id="xtick_5">
     <g id="line2d_5">
      <g>
       <use xlink:href="#mdc69fe83f5" x="343.296" y="119.740235" style="fill: #555555; stroke: #555555; stroke-width: 0.8"/>
      </g>
     </g>
     <g id="text_5">
      <!-- 0.8 -->
      <g transform="translate(335.344438 134.338673)scale(0.1 -0.1)">
       <defs>
        <path id="DejaVuSans-38" d="M 2034 2216 
Q 1584 2216 1326 1975 
Q 1069 1734 1069 1313 
Q 1069 891 1326 650 
Q 1584 409 2034 409 
Q 2484 409 2743 651 
Q 3003 894 3003 1313 
Q 3003 1734 2745 1975 
Q 2488 2216 2034 2216 
z
M 1403 2484 
Q 997 2584 770 2862 
Q 544 3141 544 3541 
Q 544 4100 942 4425 
Q 1341 4750 2034 4750 
Q 2731 4750 3128 4425 
Q 3525 4100 3525 3541 
Q 3525 3141 3298 2862 
Q 3072 2584 2669 2484 
Q 3125 2378 3379 2068 
Q 3634 1759 3634 1313 
Q 3634 634 3220 271 
Q 2806 -91 2034 -91 
Q 1263 -91 848 271 
Q 434 634 434 1313 
Q 434 1759 690 2068 
Q 947 2378 1403 2484 
z
M 1172 3481 
Q 1172 3119 1398 2916 
Q 1625 2713 2034 2713 
Q 2441 2713 2670 2916 
Q 2900 3119 2900 3481 
Q 2900 3844 2670 4047 
Q 2441 4250 2034 4250 
Q 1625 4250 1398 4047 
Q 1172 3844 1172 3481 
z
" transform="scale(0.015625)"/>
       </defs>
       <use xlink:href="#DejaVuSans-30"/>
       <use xlink:href="#DejaVuSans-2e" x="63.623047"/>
       <use xlink:href="#DejaVuSans-38" x="95.410156"/>
      </g>
     </g>
    </g>
    <g id="xtick_6">
     <g id="line2d_6">
      <g>
       <use xlink:href="#mdc69fe83f5" x="414.72" y="119.740235" style="fill: #555555; stroke: #555555; stroke-width: 0.8"/>
      </g>
     </g>
     <g id="text_6">
      <!-- 1.0 -->
      <g transform="translate(406.768438 134.338673)scale(0.1 -0.1)">
       <defs>
        <path id="DejaVuSans-31" d="M 794 531 
L 1825 531 
L 1825 4091 
L 703 3866 
L 703 4441 
L 1819 4666 
L 2450 4666 
L 2450 531 
L 3481 531 
L 3481 0 
L 794 0 
L 794 531 
z
" transform="scale(0.015625)"/>
       </defs>
       <use xlink:href="#DejaVuSans-31"/>
       <use xlink:href="#DejaVuSans-2e" x="63.623047"/>
       <use xlink:href="#DejaVuSans-30" x="95.410156"/>
      </g>
     </g>
    </g>
   </g>
   <g id="matplotlib.axis_2">
    <g id="ytick_1">
     <g id="line2d_7">
      <defs>
       <path id="mec5f1d4ef6" d="M 0 0 
L -3.5 0 
" style="stroke: #555555; stroke-width: 0.8"/>
      </defs>
      <g>
       <use xlink:href="#mec5f1d4ef6" x="57.6" y="119.740235" style="fill: #555555; stroke: #555555; stroke-width: 0.8"/>
      </g>
     </g>
     <g id="text_7">
      <!-- $\mathdefault{10^{2}}$ -->
      <g transform="translate(33 123.539454)scale(0.1 -0.1)">
       <use xlink:href="#DejaVuSans-31" transform="translate(0 0.765625)"/>
       <use xlink:href="#DejaVuSans-30" transform="translate(63.623047 0.765625)"/>
       <use xlink:href="#DejaVuSans-32" transform="translate(128.203125 39.046875)scale(0.7)"/>
      </g>
     </g>
    </g>
    <g id="ytick_2">
     <g id="line2d_8">
      <g>
       <use xlink:href="#mec5f1d4ef6" x="57.6" y="56.41731" style="fill: #555555; stroke: #555555; stroke-width: 0.8"/>
      </g>
     </g>
     <g id="text_8">
      <!-- $\mathdefault{10^{3}}$ -->
      <g transform="translate(33 60.216529)scale(0.1 -0.1)">
       <defs>
        <path id="DejaVuSans-33" d="M 2597 2516 
Q 3050 2419 3304 2112 
Q 3559 1806 3559 1356 
Q 3559 666 3084 287 
Q 2609 -91 1734 -91 
Q 1441 -91 1130 -33 
Q 819 25 488 141 
L 488 750 
Q 750 597 1062 519 
Q 1375 441 1716 441 
Q 2309 441 2620 675 
Q 2931 909 2931 1356 
Q 2931 1769 2642 2001 
Q 2353 2234 1838 2234 
L 1294 2234 
L 1294 2753 
L 1863 2753 
Q 2328 2753 2575 2939 
Q 2822 3125 2822 3475 
Q 2822 3834 2567 4026 
Q 2313 4219 1838 4219 
Q 1578 4219 1281 4162 
Q 984 4106 628 3988 
L 628 4550 
Q 988 4650 1302 4700 
Q 1616 4750 1894 4750 
Q 2613 4750 3031 4423 
Q 3450 4097 3450 3541 
Q 3450 3153 3228 2886 
Q 3006 2619 2597 2516 
z
" transform="scale(0.015625)"/>
       </defs>
       <use xlink:href="#DejaVuSans-31" transform="translate(0 0.765625)"/>
       <use xlink:href="#DejaVuSans-30" transform="translate(63.623047 0.765625)"/>
       <use xlink:href="#DejaVuSans-33" transform="translate(128.203125 39.046875)scale(0.7)"/>
      </g>
     </g>
    </g>
   </g>
   <g id="patch_3">
    <path d="M 57.6 119.740235 
L 57.6 41.472 
L 198.446126 41.472 
L 198.446126 119.740235 
z
" clip-path="url(#p562721364c)" style="fill: #e07a5f"/>
   </g>
   <g id="patch_4">
    <path d="M 198.446126 119.740235 
L 198.446126 41.472 
L 414.72 41.472 
L 414.72 119.740235 
z
" clip-path="url(#p562721364c)" style="fill: #016fb9"/>
   </g>
   <g id="line2d_9">
    <path d="M 57.6 82.10156 
L 58.672432 82.171626 
L 59.744865 82.312295 
L 60.817297 82.382901 
L 61.88973 82.524658 
L 62.962162 82.595811 
L 64.034595 82.738673 
L 65.107027 82.810383 
L 66.179459 82.954367 
L 67.251892 83.026642 
L 68.324324 83.171765 
L 69.754234 83.244615 
L 70.826667 83.390896 
L 72.256577 83.46433 
L 73.329009 83.611787 
L 74.758919 83.685814 
L 75.831351 83.834467 
L 77.261261 83.909096 
L 77.976216 83.983928 
L 79.048649 84.058965 
L 79.763604 84.134206 
L 81.193514 84.209654 
L 82.265946 84.361174 
L 84.053333 84.437248 
L 84.768288 84.513534 
L 86.198198 84.590031 
L 86.913153 84.666742 
L 88.343063 84.743667 
L 89.058018 84.820808 
L 90.487928 84.898166 
L 91.202883 84.975743 
L 92.632793 85.053539 
L 93.347748 85.131555 
L 95.135135 85.209794 
L 95.85009 85.288255 
L 97.637477 85.366941 
L 98.352432 85.445853 
L 100.13982 85.524992 
L 100.854775 85.60436 
L 102.642162 85.683957 
L 103.357117 85.763785 
L 105.501982 85.843846 
L 106.216937 85.92414 
L 108.719279 86.00467 
L 109.434234 86.085436 
L 111.936577 86.166439 
L 112.651532 86.247683 
L 115.511351 86.329167 
L 116.226306 86.410893 
L 119.086126 86.492862 
L 119.801081 86.575077 
L 123.375856 86.657538 
L 124.090811 86.740247 
L 127.665586 86.823206 
L 128.380541 86.906416 
L 133.027748 86.989878 
L 133.742703 87.073595 
L 139.81982 87.157566 
L 140.534775 87.241796 
L 151.616577 87.326284 
L 152.331532 87.411032 
L 167.345586 87.326284 
L 168.060541 87.241796 
L 173.065225 87.157566 
L 173.78018 87.073595 
L 176.997477 86.989878 
L 177.712432 86.906416 
L 179.49982 86.823206 
L 180.214775 86.740247 
L 182.002162 86.657538 
L 183.074595 86.492862 
L 184.504505 86.410893 
L 185.576937 86.247683 
L 186.291892 86.166439 
L 187.721802 85.92414 
L 188.436757 85.843846 
L 192.369009 84.898166 
L 194.871351 83.76004 
L 195.943784 82.810383 
L 196.658739 81.823069 
L 197.016216 81.138934 
L 197.373694 80.078531 
L 197.731171 78.254953 
L 198.088649 71.972692 
L 198.446126 44.938651 
L 199.161081 47.679587 
L 200.233514 50.192823 
L 201.663423 52.765724 
L 203.093333 54.970976 
L 205.595676 58.295033 
L 209.17045 62.280294 
L 211.315315 64.40223 
L 214.175135 66.94257 
L 219.894775 71.350367 
L 225.971892 75.260279 
L 228.116757 76.487699 
L 229.546667 77.239608 
L 230.619099 77.83232 
L 236.696216 80.803145 
L 238.126126 81.410549 
L 238.841081 81.753884 
L 242.773333 83.390896 
L 247.063063 85.053539 
L 247.778018 85.288255 
L 249.207928 85.843846 
L 250.28036 86.166439 
L 251.352793 86.575077 
L 252.425225 86.906416 
L 253.14018 87.157566 
L 254.212613 87.496042 
L 254.927568 87.752661 
L 256.714955 88.273196 
L 257.42991 88.537206 
L 259.574775 89.163268 
L 260.28973 89.436005 
L 264.221982 90.554836 
L 275.661261 93.568885 
L 276.376216 93.675271 
L 279.236036 94.431726 
L 279.950991 94.54151 
L 281.738378 94.985081 
L 282.095856 94.985081 
L 284.240721 95.549799 
L 284.598198 95.549799 
L 286.385586 96.010074 
L 286.743063 96.010074 
L 288.53045 96.478184 
L 288.887928 96.478184 
L 289.602883 96.715261 
L 289.96036 96.715261 
L 290.675315 96.9544 
L 291.032793 96.9544 
L 291.39027 97.074754 
L 291.747748 97.074754 
L 292.462703 97.317053 
L 292.82018 97.317053 
L 293.177658 97.439008 
L 293.535135 97.439008 
L 294.25009 97.684553 
L 294.607568 97.684553 
L 294.965045 97.808152 
L 295.322523 97.808152 
L 295.68 97.932309 
L 296.037477 97.932309 
L 296.752432 98.182318 
L 297.10991 98.182318 
L 297.467387 98.30818 
L 297.824865 98.30818 
L 298.182342 98.434621 
L 298.53982 98.434621 
L 298.897297 98.561645 
L 299.254775 98.561645 
L 299.612252 98.68926 
L 299.96973 98.68926 
L 300.684685 98.946278 
L 301.042162 98.946278 
L 301.39964 99.075694 
L 301.757117 99.075694 
L 302.114595 99.205722 
L 302.472072 99.205722 
L 302.82955 99.336367 
L 303.187027 99.336367 
L 303.544505 99.467636 
L 303.901982 99.467636 
L 304.259459 99.599535 
L 304.616937 99.599535 
L 304.974414 99.732069 
L 305.331892 99.732069 
L 305.689369 99.865245 
L 306.046847 99.865245 
L 306.404324 99.999069 
L 306.761802 99.999069 
L 307.119279 100.133547 
L 307.834234 100.133547 
L 308.191712 100.268687 
L 308.549189 100.268687 
L 308.906667 100.404493 
L 309.264144 100.404493 
L 309.621622 100.540974 
L 309.979099 100.540974 
L 310.336577 100.678135 
L 310.694054 100.678135 
L 311.051532 100.815984 
L 311.409009 100.815984 
L 311.766486 100.954528 
L 312.481441 100.954528 
L 312.838919 101.093773 
L 313.196396 101.093773 
L 313.553874 101.233726 
L 313.911351 101.233726 
L 314.268829 101.374395 
L 314.983784 101.374395 
L 315.341261 101.515788 
L 315.698739 101.515788 
L 316.056216 101.657911 
L 316.413694 101.657911 
L 316.771171 101.800773 
L 317.486126 101.800773 
L 317.843604 101.94438 
L 318.201081 101.94438 
L 318.558559 102.088742 
L 319.273514 102.088742 
L 319.630991 102.233865 
L 319.988468 102.233865 
L 320.345946 102.379758 
L 321.060901 102.379758 
L 321.418378 102.52643 
L 321.775856 102.52643 
L 322.133333 102.673887 
L 322.848288 102.673887 
L 323.205766 102.82214 
L 323.563243 102.82214 
L 323.920721 102.971196 
L 324.635676 102.971196 
L 324.993153 103.121065 
L 325.708108 103.121065 
L 326.065586 103.271754 
L 326.423063 103.271754 
L 326.780541 103.423274 
L 327.495495 103.423274 
L 327.852973 103.575634 
L 328.567928 103.575634 
L 328.925405 103.728842 
L 329.64036 103.728842 
L 329.997838 103.882908 
L 330.712793 103.882908 
L 331.07027 104.037843 
L 331.785225 104.037843 
L 332.142703 104.193655 
L 332.50018 104.193655 
L 332.857658 104.350355 
L 333.572613 104.350355 
L 333.93009 104.507953 
L 334.645045 104.507953 
L 335.002523 104.66646 
L 335.717477 104.66646 
L 336.074955 104.825885 
L 336.78991 104.825885 
L 337.147387 104.98624 
L 338.21982 104.98624 
L 338.577297 105.147535 
L 339.292252 105.147535 
L 339.64973 105.309783 
L 340.364685 105.309783 
L 340.722162 105.472993 
L 341.437117 105.472993 
L 341.794595 105.637177 
L 342.50955 105.637177 
L 342.867027 105.802347 
L 343.939459 105.802347 
L 344.296937 105.968516 
L 345.011892 105.968516 
L 345.369369 106.135694 
L 346.084324 106.135694 
L 346.441802 106.303896 
L 347.514234 106.303896 
L 347.871712 106.473132 
L 348.586667 106.473132 
L 348.944144 106.643416 
L 350.016577 106.643416 
L 350.374054 106.814761 
L 351.446486 106.814761 
L 351.803964 106.98718 
L 352.518919 106.98718 
L 352.876396 107.160687 
L 353.948829 107.160687 
L 354.306306 107.335296 
L 355.378739 107.335296 
L 355.736216 107.511021 
L 356.451171 107.511021 
L 356.808649 107.687875 
L 357.881081 107.687875 
L 358.238559 107.865875 
L 359.310991 107.865875 
L 359.668468 108.045034 
L 360.740901 108.045034 
L 361.098378 108.225367 
L 362.170811 108.225367 
L 362.528288 108.406891 
L 363.600721 108.406891 
L 363.958198 108.589622 
L 365.030631 108.589622 
L 365.388108 108.773574 
L 366.460541 108.773574 
L 366.818018 108.958765 
L 368.247928 108.958765 
L 368.605405 109.145212 
L 369.677838 109.145212 
L 370.035315 109.332932 
L 371.107748 109.332932 
L 371.465225 109.521941 
L 372.895135 109.521941 
L 373.252613 109.712259 
L 374.325045 109.712259 
L 374.682523 109.903903 
L 376.112432 109.903903 
L 376.46991 110.096892 
L 377.542342 110.096892 
L 377.89982 110.291245 
L 379.32973 110.291245 
L 379.687207 110.486981 
L 381.117117 110.486981 
L 381.474595 110.68412 
L 382.904505 110.68412 
L 383.261982 110.882682 
L 384.691892 110.882682 
L 385.049369 111.082689 
L 386.479279 111.082689 
L 386.836757 111.284161 
L 388.266667 111.284161 
L 388.624144 111.48712 
L 390.054054 111.48712 
L 390.411532 111.691588 
L 391.841441 111.691588 
L 392.198919 111.897587 
L 393.628829 111.897587 
L 393.986306 112.105141 
L 395.773694 112.105141 
L 396.131171 112.314274 
L 397.561081 112.314274 
L 397.918559 112.525009 
L 399.705946 112.525009 
L 400.063423 112.737371 
L 401.493333 112.737371 
L 401.850811 112.951386 
L 403.638198 112.951386 
L 403.995676 113.16708 
L 405.783063 113.16708 
L 406.140541 113.384479 
L 407.927928 113.384479 
L 408.285405 113.60361 
L 410.072793 113.60361 
L 410.43027 113.824501 
L 412.217658 113.824501 
L 412.575135 114.047181 
L 414.362523 114.047181 
L 414.72 114.271678 
L 414.72 114.271678 
" clip-path="url(#p562721364c)" style="fill: none; stroke: #000000; stroke-width: 2; stroke-linecap: square"/>
   </g>
   <g id="line2d_10">
    <path d="M 198.446126 119.740235 
L 198.446126 41.472 
" clip-path="url(#p562721364c)" style="fill: none; stroke: #000000; stroke-opacity: 0.1; stroke-width: 1.5; stroke-linecap: square"/>
   </g>
   <g id="patch_5">
    <path d="M 57.6 119.740235 
L 57.6 41.472 
" style="fill: none; stroke: #ffffff; stroke-linejoin: miter; stroke-linecap: square"/>
   </g>
   <g id="patch_6">
    <path d="M 414.72 119.740235 
L 414.72 41.472 
" style="fill: none; stroke: #ffffff; stroke-linejoin: miter; stroke-linecap: square"/>
   </g>
   <g id="patch_7">
    <path d="M 57.6 119.740235 
L 414.72 119.740235 
" style="fill: none; stroke: #ffffff; stroke-linejoin: miter; stroke-linecap: square"/>
   </g>
   <g id="patch_8">
    <path d="M 57.6 41.472 
L 414.72 41.472 
" style="fill: none; stroke: #ffffff; stroke-linejoin: miter; stroke-linecap: square"/>
   </g>
  </g>
 </g>
 <defs>
  <clipPath id="p562721364c">
   <rect x="57.6" y="41.472" width="357.12" height="78.268235"/>
  </clipPath>
 </defs>
</svg>
