<?xml version="1.0" encoding="utf-8" standalone="no"?>
<!DOCTYPE svg PUBLIC "-//W3C//DTD SVG 1.1//EN"
  "http://www.w3.org/Graphics/SVG/1.1/DTD/svg11.dtd">
<svg xmlns:xlink="http://www.w3.org/1999/xlink" width="460.8pt" height="345.6pt" viewBox="0 0 460.8 345.6" xmlns="http://www.w3.org/2000/svg" version="1.1">
 <metadata>
  <rdf:RDF xmlns:dc="http://purl.org/dc/elements/1.1/" xmlns:cc="http://creativecommons.org/ns#" xmlns:rdf="http://www.w3.org/1999/02/22-rdf-syntax-ns#">
   <cc:Work>
    <dc:type rdf:resource="http://purl.org/dc/dcmitype/StillImage"/>
    <dc:date>2022-06-03T03:26:54.180942</dc:date>
    <dc:format>image/svg+xml</dc:format>
    <dc:creator>
     <cc:Agent>
      <dc:title>Matplotlib v3.5.2, https://matplotlib.org/</dc:title>
     </cc:Agent>
    </dc:creator>
   </cc:Work>
  </rdf:RDF>
 </metadata>
 <defs>
  <style type="text/css">*{stroke-linejoin: round; stroke-linecap: butt}</style>
 </defs>
 <g id="figure_1">
  <g id="patch_1">
   <path d="M 0 345.6 
L 460.8 345.6 
L 460.8 0 
L 0 0 
z
" style="fill: #ffffff"/>
  </g>
  <g id="axes_1">
   <g id="patch_2">
    <path d="M 57.6 119.740235 
L 414.72 119.740235 
L 414.72 41.472 
L 57.6 41.472 
z
" style="fill: #e5e5e5"/>
   </g>
   <g id="matplotlib.axis_1">
    <g id="xtick_1">
     <g id="line2d_1">
      <defs>
       <path id="m0ec3921be3" d="M 0 0 
L 0 3.5 
" style="stroke: #555555; stroke-width: 0.8"/>
      </defs>
      <g>
       <use xlink:href="#m0ec3921be3" x="57.6" y="119.740235" style="fill: #555555; stroke: #555555; stroke-width: 0.8"/>
      </g>
     </g>
     <g id="text_1">
      <!-- 0.0 -->
      <g transform="translate(49.648438 134.338673)scale(0.1 -0.1)">
       <defs>
        <path id="DejaVuSans-30" d="M 2034 4250 
Q 1547 4250 1301 3770 
Q 1056 3291 1056 2328 
Q 1056 1369 1301 889 
Q 1547 409 2034 409 
Q 2525 409 2770 889 
Q 3016 1369 3016 2328 
Q 3016 3291 2770 3770 
Q 2525 4250 2034 4250 
z
M 2034 4750 
Q 2819 4750 3233 4129 
Q 3647 3509 3647 2328 
Q 3647 1150 3233 529 
Q 2819 -91 2034 -91 
Q 1250 -91 836 529 
Q 422 1150 422 2328 
Q 422 3509 836 4129 
Q 1250 4750 2034 4750 
z
" transform="scale(0.015625)"/>
        <path id="DejaVuSans-2e" d="M 684 794 
L 1344 794 
L 1344 0 
L 684 0 
L 684 794 
z
" transform="scale(0.015625)"/>
       </defs>
       <use xlink:href="#DejaVuSans-30"/>
       <use xlink:href="#DejaVuSans-2e" x="63.623047"/>
       <use xlink:href="#DejaVuSans-30" x="95.410156"/>
      </g>
     </g>
    </g>
    <g id="xtick_2">
     <g id="line2d_2">
      <g>
       <use xlink:href="#m0ec3921be3" x="129.024" y="119.740235" style="fill: #555555; stroke: #555555; stroke-width: 0.8"/>
      </g>
     </g>
     <g id="text_2">
      <!-- 0.2 -->
      <g transform="translate(121.072438 134.338673)scale(0.1 -0.1)">
       <defs>
        <path id="DejaVuSans-32" d="M 1228 531 
L 3431 531 
L 3431 0 
L 469 0 
L 469 531 
Q 828 903 1448 1529 
Q 2069 2156 2228 2338 
Q 2531 2678 2651 2914 
Q 2772 3150 2772 3378 
Q 2772 3750 2511 3984 
Q 2250 4219 1831 4219 
Q 1534 4219 1204 4116 
Q 875 4013 500 3803 
L 500 4441 
Q 881 4594 1212 4672 
Q 1544 4750 1819 4750 
Q 2544 4750 2975 4387 
Q 3406 4025 3406 3419 
Q 3406 3131 3298 2873 
Q 3191 2616 2906 2266 
Q 2828 2175 2409 1742 
Q 1991 1309 1228 531 
z
" transform="scale(0.015625)"/>
       </defs>
       <use xlink:href="#DejaVuSans-30"/>
       <use xlink:href="#DejaVuSans-2e" x="63.623047"/>
       <use xlink:href="#DejaVuSans-32" x="95.410156"/>
      </g>
     </g>
    </g>
    <g id="xtick_3">
     <g id="line2d_3">
      <g>
       <use xlink:href="#m0ec3921be3" x="200.448" y="119.740235" style="fill: #555555; stroke: #555555; stroke-width: 0.8"/>
      </g>
     </g>
     <g id="text_3">
      <!-- 0.4 -->
      <g transform="translate(192.496438 134.338673)scale(0.1 -0.1)">
       <defs>
        <path id="DejaVuSans-34" d="M 2419 4116 
L 825 1625 
L 2419 1625 
L 2419 4116 
z
M 2253 4666 
L 3047 4666 
L 3047 1625 
L 3713 1625 
L 3713 1100 
L 3047 1100 
L 3047 0 
L 2419 0 
L 2419 1100 
L 313 1100 
L 313 1709 
L 2253 4666 
z
" transform="scale(0.015625)"/>
       </defs>
       <use xlink:href="#DejaVuSans-30"/>
       <use xlink:href="#DejaVuSans-2e" x="63.623047"/>
       <use xlink:href="#DejaVuSans-34" x="95.410156"/>
      </g>
     </g>
    </g>
    <g id="xtick_4">
     <g id="line2d_4">
      <g>
       <use xlink:href="#m0ec3921be3" x="271.872" y="119.740235" style="fill: #555555; stroke: #555555; stroke-width: 0.8"/>
      </g>
     </g>
     <g id="text_4">
      <!-- 0.6 -->
      <g transform="translate(263.920438 134.338673)scale(0.1 -0.1)">
       <defs>
        <path id="DejaVuSans-36" d="M 2113 2584 
Q 1688 2584 1439 2293 
Q 1191 2003 1191 1497 
Q 1191 994 1439 701 
Q 1688 409 2113 409 
Q 2538 409 2786 701 
Q 3034 994 3034 1497 
Q 3034 2003 2786 2293 
Q 2538 2584 2113 2584 
z
M 3366 4563 
L 3366 3988 
Q 3128 4100 2886 4159 
Q 2644 4219 2406 4219 
Q 1781 4219 1451 3797 
Q 1122 3375 1075 2522 
Q 1259 2794 1537 2939 
Q 1816 3084 2150 3084 
Q 2853 3084 3261 2657 
Q 3669 2231 3669 1497 
Q 3669 778 3244 343 
Q 2819 -91 2113 -91 
Q 1303 -91 875 529 
Q 447 1150 447 2328 
Q 447 3434 972 4092 
Q 1497 4750 2381 4750 
Q 2619 4750 2861 4703 
Q 3103 4656 3366 4563 
z
" transform="scale(0.015625)"/>
       </defs>
       <use xlink:href="#DejaVuSans-30"/>
       <use xlink:href="#DejaVuSans-2e" x="63.623047"/>
       <use xlink:href="#DejaVuSans-36" x="95.410156"/>
      </g>
     </g>
    </g>
    <g id="xtick_5">
     <g id="line2d_5">
      <g>
       <use xlink:href="#m0ec3921be3" x="343.296" y="119.740235" style="fill: #555555; stroke: #555555; stroke-width: 0.8"/>
      </g>
     </g>
     <g id="text_5">
      <!-- 0.8 -->
      <g transform="translate(335.344438 134.338673)scale(0.1 -0.1)">
       <defs>
        <path id="DejaVuSans-38" d="M 2034 2216 
Q 1584 2216 1326 1975 
Q 1069 1734 1069 1313 
Q 1069 891 1326 650 
Q 1584 409 2034 409 
Q 2484 409 2743 651 
Q 3003 894 3003 1313 
Q 3003 1734 2745 1975 
Q 2488 2216 2034 2216 
z
M 1403 2484 
Q 997 2584 770 2862 
Q 544 3141 544 3541 
Q 544 4100 942 4425 
Q 1341 4750 2034 4750 
Q 2731 4750 3128 4425 
Q 3525 4100 3525 3541 
Q 3525 3141 3298 2862 
Q 3072 2584 2669 2484 
Q 3125 2378 3379 2068 
Q 3634 1759 3634 1313 
Q 3634 634 3220 271 
Q 2806 -91 2034 -91 
Q 1263 -91 848 271 
Q 434 634 434 1313 
Q 434 1759 690 2068 
Q 947 2378 1403 2484 
z
M 1172 3481 
Q 1172 3119 1398 2916 
Q 1625 2713 2034 2713 
Q 2441 2713 2670 2916 
Q 2900 3119 2900 3481 
Q 2900 3844 2670 4047 
Q 2441 4250 2034 4250 
Q 1625 4250 1398 4047 
Q 1172 3844 1172 3481 
z
" transform="scale(0.015625)"/>
       </defs>
       <use xlink:href="#DejaVuSans-30"/>
       <use xlink:href="#DejaVuSans-2e" x="63.623047"/>
       <use xlink:href="#DejaVuSans-38" x="95.410156"/>
      </g>
     </g>
    </g>
    <g id="xtick_6">
     <g id="line2d_6">
      <g>
       <use xlink:href="#m0ec3921be3" x="414.72" y="119.740235" style="fill: #555555; stroke: #555555; stroke-width: 0.8"/>
      </g>
     </g>
     <g id="text_6">
      <!-- 1.0 -->
      <g transform="translate(406.768438 134.338673)scale(0.1 -0.1)">
       <defs>
        <path id="DejaVuSans-31" d="M 794 531 
L 1825 531 
L 1825 4091 
L 703 3866 
L 703 4441 
L 1819 4666 
L 2450 4666 
L 2450 531 
L 3481 531 
L 3481 0 
L 794 0 
L 794 531 
z
" transform="scale(0.015625)"/>
       </defs>
       <use xlink:href="#DejaVuSans-31"/>
       <use xlink:href="#DejaVuSans-2e" x="63.623047"/>
       <use xlink:href="#DejaVuSans-30" x="95.410156"/>
      </g>
     </g>
    </g>
   </g>
   <g id="matplotlib.axis_2">
    <g id="ytick_1">
     <g id="line2d_7">
      <defs>
       <path id="mb6b139c1cc" d="M 0 0 
L -3.5 0 
" style="stroke: #555555; stroke-width: 0.8"/>
      </defs>
      <g>
       <use xlink:href="#mb6b139c1cc" x="57.6" y="116.545609" style="fill: #555555; stroke: #555555; stroke-width: 0.8"/>
      </g>
     </g>
     <g id="text_7">
      <!-- $\mathdefault{10^{2}}$ -->
      <g transform="translate(33 120.344828)scale(0.1 -0.1)">
       <use xlink:href="#DejaVuSans-31" transform="translate(0 0.765625)"/>
       <use xlink:href="#DejaVuSans-30" transform="translate(63.623047 0.765625)"/>
       <use xlink:href="#DejaVuSans-32" transform="translate(128.203125 39.046875)scale(0.7)"/>
      </g>
     </g>
    </g>
    <g id="ytick_2">
     <g id="line2d_8">
      <g>
       <use xlink:href="#mb6b139c1cc" x="57.6" y="74.334726" style="fill: #555555; stroke: #555555; stroke-width: 0.8"/>
      </g>
     </g>
     <g id="text_8">
      <!-- $\mathdefault{10^{3}}$ -->
      <g transform="translate(33 78.133945)scale(0.1 -0.1)">
       <defs>
        <path id="DejaVuSans-33" d="M 2597 2516 
Q 3050 2419 3304 2112 
Q 3559 1806 3559 1356 
Q 3559 666 3084 287 
Q 2609 -91 1734 -91 
Q 1441 -91 1130 -33 
Q 819 25 488 141 
L 488 750 
Q 750 597 1062 519 
Q 1375 441 1716 441 
Q 2309 441 2620 675 
Q 2931 909 2931 1356 
Q 2931 1769 2642 2001 
Q 2353 2234 1838 2234 
L 1294 2234 
L 1294 2753 
L 1863 2753 
Q 2328 2753 2575 2939 
Q 2822 3125 2822 3475 
Q 2822 3834 2567 4026 
Q 2313 4219 1838 4219 
Q 1578 4219 1281 4162 
Q 984 4106 628 3988 
L 628 4550 
Q 988 4650 1302 4700 
Q 1616 4750 1894 4750 
Q 2613 4750 3031 4423 
Q 3450 4097 3450 3541 
Q 3450 3153 3228 2886 
Q 3006 2619 2597 2516 
z
" transform="scale(0.015625)"/>
       </defs>
       <use xlink:href="#DejaVuSans-31" transform="translate(0 0.765625)"/>
       <use xlink:href="#DejaVuSans-30" transform="translate(63.623047 0.765625)"/>
       <use xlink:href="#DejaVuSans-33" transform="translate(128.203125 39.046875)scale(0.7)"/>
      </g>
     </g>
    </g>
   </g>
   <g id="patch_3">
    <path d="M 57.6 119.740235 
L 57.6 41.472 
L 152.689009 41.472 
L 152.689009 119.740235 
z
" clip-path="url(#pbd82727550)" style="fill: #e07a5f"/>
   </g>
   <g id="patch_4">
    <path d="M 152.689009 119.740235 
L 152.689009 41.472 
L 414.72 41.472 
L 414.72 119.740235 
z
" clip-path="url(#pbd82727550)" style="fill: #fcec52"/>
   </g>
   <g id="line2d_9">
    <path d="M 57.6 91.785241 
L 59.02991 91.880472 
L 60.817297 92.024253 
L 62.247207 92.120737 
L 64.034595 92.266422 
L 65.821982 92.364193 
L 67.251892 92.462488 
L 69.039279 92.561313 
L 70.469189 92.660673 
L 72.256577 92.760575 
L 73.686486 92.861024 
L 75.831351 92.962027 
L 77.261261 93.063589 
L 79.763604 93.165717 
L 81.193514 93.268418 
L 84.410811 93.371697 
L 85.840721 93.475561 
L 89.772973 93.580017 
L 90.845405 93.632469 
L 94.777658 93.737825 
L 95.85009 93.790731 
L 103.714595 93.897003 
L 104.787027 93.950372 
L 116.226306 93.84379 
L 117.298739 93.790731 
L 120.158559 93.685071 
L 121.588468 93.580017 
L 123.733333 93.475561 
L 125.520721 93.319984 
L 126.950631 93.216996 
L 130.167928 92.861024 
L 131.24036 92.760575 
L 135.172613 92.120737 
L 137.317477 91.643316 
L 138.38991 91.409188 
L 140.534775 90.769104 
L 143.394595 89.594414 
L 145.181982 88.649894 
L 146.611892 87.599845 
L 147.684324 86.642537 
L 148.756757 85.394512 
L 149.829189 83.66863 
L 150.544144 82.063377 
L 151.259099 79.731123 
L 151.616577 77.97272 
L 151.974054 75.255746 
L 152.331532 68.11423 
L 152.689009 45.029647 
L 153.403964 48.118713 
L 154.476396 51.374372 
L 155.906306 54.797544 
L 157.336216 57.625532 
L 159.123604 60.611758 
L 160.910991 63.166498 
L 162.698378 65.400607 
L 164.843243 67.76504 
L 167.703063 70.509968 
L 170.562883 72.889963 
L 173.78018 75.236479 
L 178.784865 78.379611 
L 182.35964 80.331404 
L 187.721802 82.921503 
L 198.088649 87.078169 
L 201.305946 88.175765 
L 202.378378 88.570016 
L 203.450811 88.891637 
L 207.383063 90.150618 
L 209.885405 90.859188 
L 210.957838 91.178013 
L 228.116757 95.511481 
L 229.904144 95.864029 
L 230.619099 96.042879 
L 232.406486 96.4059 
L 233.121441 96.590142 
L 237.053694 97.346206 
L 237.768649 97.540197 
L 256 100.804664 
L 256.714955 100.882507 
L 258.85982 101.276758 
L 259.574775 101.356636 
L 261.004685 101.598379 
L 261.71964 101.679674 
L 263.14955 101.925744 
L 263.864505 102.008507 
L 265.294414 102.259062 
L 266.366847 102.343347 
L 268.154234 102.684416 
L 269.226667 102.770684 
L 270.656577 103.031952 
L 271.729009 103.119875 
L 273.158919 103.386203 
L 274.231351 103.475846 
L 275.303784 103.656458 
L 276.376216 103.747436 
L 277.806126 104.023109 
L 278.878559 104.11593 
L 279.950991 104.302992 
L 281.023423 104.397244 
L 282.095856 104.587214 
L 283.525766 104.682943 
L 284.598198 104.875912 
L 285.670631 104.973164 
L 286.743063 105.16923 
L 288.172973 105.268055 
L 289.245405 105.467317 
L 290.675315 105.567766 
L 291.747748 105.770331 
L 293.177658 105.872459 
L 294.25009 106.078439 
L 295.68 106.182303 
L 296.394955 106.286758 
L 297.467387 106.391813 
L 298.182342 106.497473 
L 299.612252 106.603745 
L 300.684685 106.818157 
L 302.472072 106.92631 
L 303.187027 107.035105 
L 304.259459 107.14455 
L 304.974414 107.254652 
L 306.404324 107.36542 
L 307.119279 107.476861 
L 307.476757 107.476861 
L 308.191712 107.588983 
L 308.549189 107.588983 
L 309.264144 107.701795 
L 309.621622 107.701795 
L 310.336577 107.815306 
L 310.694054 107.815306 
L 311.409009 107.929524 
L 311.766486 107.929524 
L 312.481441 108.044459 
L 312.838919 108.044459 
L 313.553874 108.160118 
L 313.911351 108.160118 
L 314.626306 108.276512 
L 315.341261 108.276512 
L 315.698739 108.393649 
L 316.413694 108.393649 
L 316.771171 108.51154 
L 317.486126 108.51154 
L 317.843604 108.630194 
L 318.916036 108.630194 
L 319.273514 108.749621 
L 319.988468 108.749621 
L 320.345946 108.869831 
L 321.060901 108.869831 
L 321.418378 108.990834 
L 322.490811 108.990834 
L 322.848288 109.112642 
L 323.563243 109.112642 
L 323.920721 109.235264 
L 324.993153 109.235264 
L 325.350631 109.358712 
L 326.423063 109.358712 
L 326.780541 109.482997 
L 327.495495 109.482997 
L 327.852973 109.60813 
L 328.925405 109.60813 
L 329.282883 109.734123 
L 330.355315 109.734123 
L 330.712793 109.860988 
L 331.785225 109.860988 
L 332.142703 109.988738 
L 333.215135 109.988738 
L 333.572613 110.117384 
L 334.645045 110.117384 
L 335.002523 110.246939 
L 336.074955 110.246939 
L 336.432432 110.377416 
L 337.504865 110.377416 
L 337.862342 110.508828 
L 338.934775 110.508828 
L 339.292252 110.641189 
L 340.364685 110.641189 
L 340.722162 110.774513 
L 342.152072 110.774513 
L 342.50955 110.908814 
L 343.581982 110.908814 
L 343.939459 111.044106 
L 345.369369 111.044106 
L 345.726847 111.180403 
L 346.799279 111.180403 
L 347.156757 111.317722 
L 348.586667 111.317722 
L 348.944144 111.456077 
L 350.016577 111.456077 
L 350.374054 111.595484 
L 351.803964 111.595484 
L 352.161441 111.73596 
L 353.591351 111.73596 
L 353.948829 111.87752 
L 355.378739 111.87752 
L 355.736216 112.020182 
L 357.166126 112.020182 
L 357.523604 112.163962 
L 358.953514 112.163962 
L 359.310991 112.30888 
L 360.740901 112.30888 
L 361.098378 112.454952 
L 362.528288 112.454952 
L 362.885766 112.602197 
L 364.673153 112.602197 
L 365.030631 112.750635 
L 366.460541 112.750635 
L 366.818018 112.900284 
L 368.605405 112.900284 
L 368.962883 113.051166 
L 370.392793 113.051166 
L 370.75027 113.203299 
L 372.537658 113.203299 
L 372.895135 113.356705 
L 374.682523 113.356705 
L 375.04 113.511406 
L 376.827387 113.511406 
L 377.184865 113.667424 
L 378.972252 113.667424 
L 379.32973 113.82478 
L 381.117117 113.82478 
L 381.474595 113.9835 
L 383.261982 113.9835 
L 383.619459 114.143605 
L 385.764324 114.143605 
L 386.121802 114.305121 
L 387.909189 114.305121 
L 388.266667 114.468073 
L 390.411532 114.468073 
L 390.769009 114.632486 
L 392.913874 114.632486 
L 393.271351 114.798387 
L 395.416216 114.798387 
L 395.773694 114.965804 
L 397.918559 114.965804 
L 398.276036 115.134763 
L 400.420901 115.134763 
L 400.778378 115.305294 
L 402.923243 115.305294 
L 403.280721 115.477426 
L 405.783063 115.477426 
L 406.140541 115.65119 
L 408.285405 115.65119 
L 408.642883 115.826617 
L 411.145225 115.826617 
L 411.502703 116.003738 
L 414.005045 116.003738 
L 414.362523 116.182588 
L 414.72 116.182588 
L 414.72 116.182588 
" clip-path="url(#pbd82727550)" style="fill: none; stroke: #000000; stroke-width: 2; stroke-linecap: square"/>
   </g>
   <g id="line2d_10">
    <path d="M 152.689009 119.740235 
L 152.689009 41.472 
" clip-path="url(#pbd82727550)" style="fill: none; stroke: #000000; stroke-opacity: 0.1; stroke-width: 1.5; stroke-linecap: square"/>
   </g>
   <g id="patch_5">
    <path d="M 57.6 119.740235 
L 57.6 41.472 
" style="fill: none; stroke: #ffffff; stroke-linejoin: miter; stroke-linecap: square"/>
   </g>
   <g id="patch_6">
    <path d="M 414.72 119.740235 
L 414.72 41.472 
" style="fill: none; stroke: #ffffff; stroke-linejoin: miter; stroke-linecap: square"/>
   </g>
   <g id="patch_7">
    <path d="M 57.6 119.740235 
L 414.72 119.740235 
" style="fill: none; stroke: #ffffff; stroke-linejoin: miter; stroke-linecap: square"/>
   </g>
   <g id="patch_8">
    <path d="M 57.6 41.472 
L 414.72 41.472 
" style="fill: none; stroke: #ffffff; stroke-linejoin: miter; stroke-linecap: square"/>
   </g>
  </g>
 </g>
 <defs>
  <clipPath id="pbd82727550">
   <rect x="57.6" y="41.472" width="357.12" height="78.268235"/>
  </clipPath>
 </defs>
</svg>
