<?xml version="1.0" encoding="utf-8" standalone="no"?>
<!DOCTYPE svg PUBLIC "-//W3C//DTD SVG 1.1//EN"
  "http://www.w3.org/Graphics/SVG/1.1/DTD/svg11.dtd">
<svg xmlns:xlink="http://www.w3.org/1999/xlink" width="460.8pt" height="345.6pt" viewBox="0 0 460.8 345.6" xmlns="http://www.w3.org/2000/svg" version="1.1">
 <metadata>
  <rdf:RDF xmlns:dc="http://purl.org/dc/elements/1.1/" xmlns:cc="http://creativecommons.org/ns#" xmlns:rdf="http://www.w3.org/1999/02/22-rdf-syntax-ns#">
   <cc:Work>
    <dc:type rdf:resource="http://purl.org/dc/dcmitype/StillImage"/>
    <dc:date>2022-05-02T21:43:30.407912</dc:date>
    <dc:format>image/svg+xml</dc:format>
    <dc:creator>
     <cc:Agent>
      <dc:title>Matplotlib v3.5.1, https://matplotlib.org/</dc:title>
     </cc:Agent>
    </dc:creator>
   </cc:Work>
  </rdf:RDF>
 </metadata>
 <defs>
  <style type="text/css">*{stroke-linejoin: round; stroke-linecap: butt}</style>
 </defs>
 <g id="figure_1">
  <g id="patch_1">
   <path d="M 0 345.6 
L 460.8 345.6 
L 460.8 0 
L 0 0 
z
" style="fill: #ffffff"/>
  </g>
  <g id="axes_1">
   <g id="patch_2">
    <path d="M 103.104 307.584 
L 369.216 307.584 
L 369.216 41.472 
L 103.104 41.472 
z
" style="fill: #ffffff"/>
   </g>
   <g id="matplotlib.axis_1"/>
   <g id="matplotlib.axis_2"/>
   <g id="line2d_1">
    <path d="M 115.2 53.578983 
L 117.643636 53.581441 
L 120.087273 53.58445 
L 122.530909 53.588133 
L 124.974545 53.592639 
L 127.418182 53.598155 
L 129.861818 53.604904 
L 132.305455 53.613165 
L 134.749091 53.623274 
L 137.192727 53.635644 
L 139.636364 53.650783 
L 142.08 53.669308 
L 144.523636 53.691977 
L 146.967273 53.719714 
L 149.410909 53.753653 
L 151.854545 53.795176 
L 154.298182 53.845976 
L 156.741818 53.90812 
L 159.185455 53.984133 
L 161.629091 54.077098 
L 164.072727 54.190777 
L 166.516364 54.329761 
L 168.96 54.499642 
L 171.403636 54.707229 
L 173.847273 54.960803 
L 176.290909 55.270419 
L 178.734545 55.648267 
L 181.178182 56.10909 
L 183.621818 56.670675 
L 186.065455 57.354408 
L 188.509091 58.1859 
L 190.952727 59.195673 
L 193.396364 60.419872 
L 195.84 61.900982 
L 198.283636 63.688467 
L 200.727273 65.839237 
L 203.170909 68.417801 
L 205.614545 71.495902 
L 208.058182 75.151391 
L 210.501818 79.466055 
L 212.945455 84.522076 
L 215.389091 90.39689 
L 217.832727 97.156321 
L 220.276364 104.84617 
L 222.72 113.482827 
L 225.163636 123.044013 
L 227.607273 133.461216 
L 230.050909 144.615685 
L 232.494545 156.339697 
L 234.938182 168.424098 
L 237.381818 180.631902 
L 239.825455 192.716303 
L 242.269091 204.440315 
L 244.712727 215.594784 
L 247.156364 226.011987 
L 249.6 235.573173 
L 252.043636 244.20983 
L 254.487273 251.899679 
L 256.930909 258.65911 
L 259.374545 264.533924 
L 261.818182 269.589945 
L 264.261818 273.904609 
L 266.705455 277.560098 
L 269.149091 280.638199 
L 271.592727 283.216763 
L 274.036364 285.367533 
L 276.48 287.155018 
L 278.923636 288.636128 
L 281.367273 289.860327 
L 283.810909 290.8701 
L 286.254545 291.701592 
L 288.698182 292.385325 
L 291.141818 292.94691 
L 293.585455 293.407733 
L 296.029091 293.785581 
L 298.472727 294.095197 
L 300.916364 294.348771 
L 303.36 294.556358 
L 305.803636 294.726239 
L 308.247273 294.865223 
L 310.690909 294.978902 
L 313.134545 295.071867 
L 315.578182 295.14788 
L 318.021818 295.210024 
L 320.465455 295.260824 
L 322.909091 295.302347 
L 325.352727 295.336286 
L 327.796364 295.364023 
L 330.24 295.386692 
L 332.683636 295.405217 
L 335.127273 295.420356 
L 337.570909 295.432726 
L 340.014545 295.442835 
L 342.458182 295.451096 
L 344.901818 295.457845 
L 347.345455 295.463361 
L 349.789091 295.467867 
L 352.232727 295.47155 
L 354.676364 295.474559 
L 357.12 295.477017 
" clip-path="url(#pe978986903)" style="fill: none; stroke: #000000; stroke-width: 4; stroke-linecap: square"/>
   </g>
   <g id="line2d_2">
    <path d="M 115.2 295.488 
L 117.643636 293.044364 
L 120.087273 290.600727 
L 122.530909 288.157091 
L 124.974545 285.713455 
L 127.418182 283.269818 
L 129.861818 280.826182 
L 132.305455 278.382545 
L 134.749091 275.938909 
L 137.192727 273.495273 
L 139.636364 271.051636 
L 142.08 268.608 
L 144.523636 266.164364 
L 146.967273 263.720727 
L 149.410909 261.277091 
L 151.854545 258.833455 
L 154.298182 256.389818 
L 156.741818 253.946182 
L 159.185455 251.502545 
L 161.629091 249.058909 
L 164.072727 246.615273 
L 166.516364 244.171636 
L 168.96 241.728 
L 171.403636 239.284364 
L 173.847273 236.840727 
L 176.290909 234.397091 
L 178.734545 231.953455 
L 181.178182 229.509818 
L 183.621818 227.066182 
L 186.065455 224.622545 
L 188.509091 222.178909 
L 190.952727 219.735273 
L 193.396364 217.291636 
L 195.84 214.848 
L 198.283636 212.404364 
L 200.727273 209.960727 
L 203.170909 207.517091 
L 205.614545 205.073455 
L 208.058182 202.629818 
L 210.501818 200.186182 
L 212.945455 197.742545 
L 215.389091 195.298909 
L 217.832727 192.855273 
L 220.276364 190.411636 
L 222.72 187.968 
L 225.163636 185.524364 
L 227.607273 183.080727 
L 230.050909 180.637091 
L 232.494545 178.193455 
L 234.938182 175.749818 
L 237.381818 173.306182 
L 239.825455 170.862545 
L 242.269091 168.418909 
L 244.712727 165.975273 
L 247.156364 163.531636 
L 249.6 161.088 
L 252.043636 158.644364 
L 254.487273 156.200727 
L 256.930909 153.757091 
L 259.374545 151.313455 
L 261.818182 148.869818 
L 264.261818 146.426182 
L 266.705455 143.982545 
L 269.149091 141.538909 
L 271.592727 139.095273 
L 274.036364 136.651636 
L 276.48 134.208 
L 278.923636 131.764364 
L 281.367273 129.320727 
L 283.810909 126.877091 
L 286.254545 124.433455 
L 288.698182 121.989818 
L 291.141818 119.546182 
L 293.585455 117.102545 
L 296.029091 114.658909 
L 298.472727 112.215273 
L 300.916364 109.771636 
L 303.36 107.328 
L 305.803636 104.884364 
L 308.247273 102.440727 
L 310.690909 99.997091 
L 313.134545 97.553455 
L 315.578182 95.109818 
L 318.021818 92.666182 
L 320.465455 90.222545 
L 322.909091 87.778909 
L 325.352727 85.335273 
L 327.796364 82.891636 
L 330.24 80.448 
L 332.683636 78.004364 
L 335.127273 75.560727 
L 337.570909 73.117091 
L 340.014545 70.673455 
L 342.458182 68.229818 
L 344.901818 65.786182 
L 347.345455 63.342545 
L 349.789091 60.898909 
L 352.232727 58.455273 
L 354.676364 56.011636 
L 357.12 53.568 
" clip-path="url(#pe978986903)" style="fill: none; stroke-dasharray: 7.4,3.2; stroke-dashoffset: 0; stroke: #000000; stroke-width: 2"/>
   </g>
   <g id="patch_3">
    <path d="M 103.104 307.584 
L 103.104 41.472 
" style="fill: none; stroke: #000000; stroke-width: 0.8; stroke-linejoin: miter; stroke-linecap: square"/>
   </g>
   <g id="patch_4">
    <path d="M 369.216 307.584 
L 369.216 41.472 
" style="fill: none; stroke: #000000; stroke-width: 0.8; stroke-linejoin: miter; stroke-linecap: square"/>
   </g>
   <g id="patch_5">
    <path d="M 103.104 307.584 
L 369.216 307.584 
" style="fill: none; stroke: #000000; stroke-width: 0.8; stroke-linejoin: miter; stroke-linecap: square"/>
   </g>
   <g id="patch_6">
    <path d="M 103.104 41.472 
L 369.216 41.472 
" style="fill: none; stroke: #000000; stroke-width: 0.8; stroke-linejoin: miter; stroke-linecap: square"/>
   </g>
  </g>
 </g>
 <defs>
  <clipPath id="pe978986903">
   <rect x="103.104" y="41.472" width="266.112" height="266.112"/>
  </clipPath>
 </defs>
</svg>
