<?xml version="1.0" encoding="utf-8" standalone="no"?>
<!DOCTYPE svg PUBLIC "-//W3C//DTD SVG 1.1//EN"
  "http://www.w3.org/Graphics/SVG/1.1/DTD/svg11.dtd">
<svg xmlns:xlink="http://www.w3.org/1999/xlink" width="460.8pt" height="345.6pt" viewBox="0 0 460.8 345.6" xmlns="http://www.w3.org/2000/svg" version="1.1">
 <metadata>
  <rdf:RDF xmlns:dc="http://purl.org/dc/elements/1.1/" xmlns:cc="http://creativecommons.org/ns#" xmlns:rdf="http://www.w3.org/1999/02/22-rdf-syntax-ns#">
   <cc:Work>
    <dc:type rdf:resource="http://purl.org/dc/dcmitype/StillImage"/>
    <dc:date>2022-05-02T22:54:02.232497</dc:date>
    <dc:format>image/svg+xml</dc:format>
    <dc:creator>
     <cc:Agent>
      <dc:title>Matplotlib v3.5.1, https://matplotlib.org/</dc:title>
     </cc:Agent>
    </dc:creator>
   </cc:Work>
  </rdf:RDF>
 </metadata>
 <defs>
  <style type="text/css">*{stroke-linejoin: round; stroke-linecap: butt}</style>
 </defs>
 <g id="figure_1">
  <g id="patch_1">
   <path d="M 0 345.6 
L 460.8 345.6 
L 460.8 0 
L 0 0 
z
" style="fill: #ffffff"/>
  </g>
  <g id="axes_1">
   <g id="matplotlib.axis_1"/>
   <g id="matplotlib.axis_2"/>
   <g id="line2d_1">
    <path d="M 73.832727 169.429244 
L 77.112066 168.359671 
L 80.391405 167.311989 
L 83.670744 166.286218 
L 86.950083 165.282384 
L 90.229421 164.300517 
L 93.50876 163.340657 
L 96.788099 162.402855 
L 100.067438 161.487176 
L 103.346777 160.5937 
L 106.626116 159.722529 
L 109.905455 158.873793 
L 113.184793 158.047651 
L 116.464132 157.244307 
L 119.743471 156.464012 
L 123.02281 155.707082 
L 126.302149 154.973911 
L 129.581488 154.264988 
L 132.860826 153.580921 
L 136.140165 152.922465 
L 139.419504 152.290556 
L 142.698843 151.686352 
L 145.978182 151.11128 
L 149.257521 150.567102 
L 152.53686 150.055983 
L 155.816198 149.58058 
L 159.095537 149.144144 
L 162.374876 148.750643 
L 165.654215 148.404902 
L 168.933554 148.112763 
L 172.212893 147.881272 
L 175.492231 147.71887 
L 178.77157 147.63561 
L 182.050909 147.64336 
L 185.330248 147.755991 
L 188.609587 147.989513 
L 191.888926 148.362121 
L 195.168264 148.894085 
L 198.447603 149.607416 
L 201.726942 150.52523 
L 205.006281 151.670701 
L 208.28562 153.06555 
L 211.564959 154.72802 
L 214.844298 156.670401 
L 218.123636 158.896265 
L 221.402975 161.397738 
L 224.682314 164.153277 
L 227.961653 167.126496 
L 231.240992 170.266543 
L 234.520331 173.510328 
L 237.799669 176.786547 
L 241.079008 180.020995 
L 244.358347 183.142366 
L 247.637686 186.087573 
L 250.917025 188.805763 
L 254.196364 191.260549 
L 257.475702 193.430387 
L 260.755041 195.307406 
L 264.03438 196.895177 
L 267.313719 198.205989 
L 270.593058 199.258085 
L 273.872397 200.073187 
L 277.151736 200.674469 
L 280.431074 201.085045 
L 283.710413 201.326929 
L 286.989752 201.42039 
L 290.269091 201.383621 
L 293.54843 201.232634 
L 296.827769 200.9813 
L 300.107107 200.641486 
L 303.386446 200.223246 
L 306.665785 199.73502 
L 309.945124 199.183855 
L 313.224463 198.575593 
L 316.503802 197.915058 
L 319.78314 197.206218 
L 323.062479 196.452325 
L 326.341818 195.656036 
L 329.621157 194.819515 
L 332.900496 193.944524 
L 336.179835 193.032492 
L 339.459174 192.084575 
L 342.738512 191.101709 
L 346.017851 190.08465 
L 349.29719 189.034005 
L 352.576529 187.950264 
L 355.855868 186.833821 
L 359.135207 185.684991 
L 362.414545 184.504026 
L 365.693884 183.291128 
L 368.973223 182.046459 
L 372.252562 180.770148 
L 375.531901 179.462295 
L 378.81124 178.122982 
L 382.090579 176.752274 
L 385.369917 175.350222 
L 388.649256 173.916864 
L 391.928595 172.452233 
L 395.207934 170.956353 
L 398.487273 169.429244 
" clip-path="url(#pfaa785133b)" style="fill: none; stroke: #000000; stroke-width: 4; stroke-linecap: square"/>
   </g>
   <g id="line2d_2">
    <path d="M 57.6 169.429244 
L 414.72 169.429244 
" clip-path="url(#pfaa785133b)" style="fill: none; stroke-dasharray: 7.4,3.2; stroke-dashoffset: 0; stroke: #000000; stroke-width: 2"/>
   </g>
  </g>
 </g>
 <defs>
  <clipPath id="pfaa785133b">
   <rect x="57.6" y="144.946371" width="357.12" height="59.163257"/>
  </clipPath>
 </defs>
</svg>
