<?xml version="1.0" encoding="utf-8" standalone="no"?>
<!DOCTYPE svg PUBLIC "-//W3C//DTD SVG 1.1//EN"
  "http://www.w3.org/Graphics/SVG/1.1/DTD/svg11.dtd">
<svg xmlns:xlink="http://www.w3.org/1999/xlink" width="460.8pt" height="345.6pt" viewBox="0 0 460.8 345.6" xmlns="http://www.w3.org/2000/svg" version="1.1">
 <metadata>
  <rdf:RDF xmlns:dc="http://purl.org/dc/elements/1.1/" xmlns:cc="http://creativecommons.org/ns#" xmlns:rdf="http://www.w3.org/1999/02/22-rdf-syntax-ns#">
   <cc:Work>
    <dc:type rdf:resource="http://purl.org/dc/dcmitype/StillImage"/>
    <dc:date>2022-04-10T20:45:37.212303</dc:date>
    <dc:format>image/svg+xml</dc:format>
    <dc:creator>
     <cc:Agent>
      <dc:title>Matplotlib v3.5.1, https://matplotlib.org/</dc:title>
     </cc:Agent>
    </dc:creator>
   </cc:Work>
  </rdf:RDF>
 </metadata>
 <defs>
  <style type="text/css">*{stroke-linejoin: round; stroke-linecap: butt}</style>
 </defs>
 <g id="figure_1">
  <g id="patch_1">
   <path d="M 0 345.6 
L 460.8 345.6 
L 460.8 0 
L 0 0 
z
" style="fill: #ffffff"/>
  </g>
  <g id="axes_1">
   <g id="patch_2">
    <path d="M 57.6 307.584 
L 414.72 307.584 
L 414.72 41.472 
L 57.6 41.472 
z
" style="fill: #ffffff"/>
   </g>
   <g id="matplotlib.axis_1"/>
   <g id="matplotlib.axis_2"/>
   <g id="line2d_1">
    <path d="M 73.832727 295.488 
L 77.112066 295.485541 
L 80.391405 295.482532 
L 83.670744 295.478849 
L 86.950083 295.474342 
L 90.229421 295.468826 
L 93.50876 295.462076 
L 96.788099 295.453815 
L 100.067438 295.443705 
L 103.346777 295.431333 
L 106.626116 295.416193 
L 109.905455 295.397666 
L 113.184793 295.374996 
L 116.464132 295.347256 
L 119.743471 295.313314 
L 123.02281 295.271787 
L 126.302149 295.220982 
L 129.581488 295.158833 
L 132.860826 295.082813 
L 136.140165 294.98984 
L 139.419504 294.87615 
L 142.698843 294.737153 
L 145.978182 294.567257 
L 149.257521 294.359651 
L 152.53686 294.106055 
L 155.816198 293.79641 
L 159.095537 293.418528 
L 162.374876 292.957663 
L 165.654215 292.396027 
L 168.933554 291.712232 
L 172.212893 290.880664 
L 175.492231 289.8708 
L 178.77157 288.64649 
L 182.050909 287.165245 
L 185.330248 285.377598 
L 188.609587 283.226632 
L 191.888926 280.647834 
L 195.168264 277.569454 
L 198.447603 273.913633 
L 201.726942 269.598577 
L 205.006281 264.542096 
L 208.28562 258.666749 
L 211.564959 251.906704 
L 214.844298 244.216158 
L 218.123636 235.578716 
L 221.402975 226.016662 
L 224.682314 215.598513 
L 227.961653 204.443031 
L 231.240992 192.717955 
L 234.520331 180.632456 
L 237.799669 168.423544 
L 241.079008 156.338045 
L 244.358347 144.612969 
L 247.637686 133.457487 
L 250.917025 123.039338 
L 254.196364 113.477284 
L 257.475702 104.839842 
L 260.755041 97.149296 
L 264.03438 90.389251 
L 267.313719 84.513904 
L 270.593058 79.457423 
L 273.872397 75.142367 
L 277.151736 71.486546 
L 280.431074 68.408166 
L 283.710413 65.829368 
L 286.989752 63.678402 
L 290.269091 61.890755 
L 293.54843 60.40951 
L 296.827769 59.1852 
L 300.107107 58.175336 
L 303.386446 57.343768 
L 306.665785 56.659973 
L 309.945124 56.098337 
L 313.224463 55.637472 
L 316.503802 55.25959 
L 319.78314 54.949945 
L 323.062479 54.696349 
L 326.341818 54.488743 
L 329.621157 54.318847 
L 332.900496 54.17985 
L 336.179835 54.06616 
L 339.459174 53.973187 
L 342.738512 53.897167 
L 346.017851 53.835018 
L 349.29719 53.784213 
L 352.576529 53.742686 
L 355.855868 53.708744 
L 359.135207 53.681004 
L 362.414545 53.658334 
L 365.693884 53.639807 
L 368.973223 53.624667 
L 372.252562 53.612295 
L 375.531901 53.602185 
L 378.81124 53.593924 
L 382.090579 53.587174 
L 385.369917 53.581658 
L 388.649256 53.577151 
L 391.928595 53.573468 
L 395.207934 53.570459 
L 398.487273 53.568 
" clip-path="url(#p072e001d18)" style="fill: none; stroke: #1f77b4; stroke-width: 4; stroke-linecap: square"/>
   </g>
   <g id="patch_3">
    <path d="M 57.6 307.584 
L 57.6 41.472 
" style="fill: none; stroke: #000000; stroke-width: 0.8; stroke-linejoin: miter; stroke-linecap: square"/>
   </g>
   <g id="patch_4">
    <path d="M 414.72 307.584 
L 414.72 41.472 
" style="fill: none; stroke: #000000; stroke-width: 0.8; stroke-linejoin: miter; stroke-linecap: square"/>
   </g>
   <g id="patch_5">
    <path d="M 57.6 307.584 
L 414.72 307.584 
" style="fill: none; stroke: #000000; stroke-width: 0.8; stroke-linejoin: miter; stroke-linecap: square"/>
   </g>
   <g id="patch_6">
    <path d="M 57.6 41.472 
L 414.72 41.472 
" style="fill: none; stroke: #000000; stroke-width: 0.8; stroke-linejoin: miter; stroke-linecap: square"/>
   </g>
  </g>
 </g>
 <defs>
  <clipPath id="p072e001d18">
   <rect x="57.6" y="41.472" width="357.12" height="266.112"/>
  </clipPath>
 </defs>
</svg>
