<?xml version="1.0" encoding="UTF-8" standalone="no"?>
<!-- Created with Inkscape (http://www.inkscape.org/) -->

<svg
   xmlns:dc="http://purl.org/dc/elements/1.1/"
   xmlns:cc="http://creativecommons.org/ns#"
   xmlns:rdf="http://www.w3.org/1999/02/22-rdf-syntax-ns#"
   xmlns:svg="http://www.w3.org/2000/svg"
   xmlns="http://www.w3.org/2000/svg"
   xmlns:xlink="http://www.w3.org/1999/xlink"
   xmlns:sodipodi="http://sodipodi.sourceforge.net/DTD/sodipodi-0.dtd"
   xmlns:inkscape="http://www.inkscape.org/namespaces/inkscape"
   width="578.11401mm"
   height="355.26382mm"
   viewBox="0 0 578.11401 355.26382"
   version="1.1"
   id="svg3024"
   inkscape:version="0.92.2 (5c3e80d, 2017-08-06)"
   sodipodi:docname="Drosophila Female ClipArt - MH.svg">
  <defs
     id="defs3018">
    <radialGradient
       inkscape:collect="always"
       xlink:href="#linearGradient2881"
       id="radialGradient2883"
       cx="148.65923"
       cy="939.18927"
       fx="148.65923"
       fy="939.18927"
       r="2.3757138"
       gradientTransform="matrix(0.04052915,-0.81172653,0.96843554,0.04835357,-766.91003,1014.4469)"
       gradientUnits="userSpaceOnUse" />
    <linearGradient
       inkscape:collect="always"
       id="linearGradient2881">
      <stop
         style="stop-color:#ac0400;stop-opacity:1;"
         offset="0"
         id="stop2877" />
      <stop
         style="stop-color:#dd171c;stop-opacity:1"
         offset="1"
         id="stop2879" />
    </linearGradient>
    <linearGradient
       inkscape:collect="always"
       xlink:href="#linearGradient2899"
       id="linearGradient2909"
       x1="120.06965"
       y1="935.90576"
       x2="122.84816"
       y2="935.90576"
       gradientUnits="userSpaceOnUse" />
    <linearGradient
       inkscape:collect="always"
       id="linearGradient2899">
      <stop
         style="stop-color:#000000;stop-opacity:1;"
         offset="0"
         id="stop2895" />
      <stop
         style="stop-color:#000000;stop-opacity:0;"
         offset="1"
         id="stop2897" />
    </linearGradient>
    <linearGradient
       inkscape:collect="always"
       xlink:href="#linearGradient2899"
       id="linearGradient2907"
       x1="121.77279"
       y1="937.19189"
       x2="125.24529"
       y2="937.19189"
       gradientUnits="userSpaceOnUse" />
    <linearGradient
       inkscape:collect="always"
       xlink:href="#linearGradient2899"
       id="linearGradient2905"
       x1="124.05414"
       y1="938.85773"
       x2="127.47824"
       y2="938.85773"
       gradientUnits="userSpaceOnUse" />
    <linearGradient
       inkscape:collect="always"
       xlink:href="#linearGradient2899"
       id="linearGradient2903"
       x1="126.73821"
       y1="939.86945"
       x2="129.73737"
       y2="939.86945"
       gradientUnits="userSpaceOnUse" />
    <linearGradient
       inkscape:collect="always"
       xlink:href="#linearGradient2899"
       id="linearGradient2901"
       x1="129.33841"
       y1="941.18457"
       x2="132.07716"
       y2="941.18457"
       gradientUnits="userSpaceOnUse" />
  </defs>
  <sodipodi:namedview
     id="base"
     pagecolor="#ffffff"
     bordercolor="#666666"
     borderopacity="1.0"
     inkscape:pageopacity="0.0"
     inkscape:pageshadow="2"
     inkscape:zoom="0.35"
     inkscape:cx="625.35612"
     inkscape:cy="625.65121"
     inkscape:document-units="mm"
     inkscape:current-layer="layer1"
     showgrid="false"
     inkscape:window-width="2560"
     inkscape:window-height="1475"
     inkscape:window-x="-13"
     inkscape:window-y="-13"
     inkscape:window-maximized="1" />
  <metadata
     id="metadata3021">
    <rdf:RDF>
      <cc:Work
         rdf:about="">
        <dc:format>image/svg+xml</dc:format>
        <dc:type
           rdf:resource="http://purl.org/dc/dcmitype/StillImage" />
        <dc:title></dc:title>
      </cc:Work>
    </rdf:RDF>
  </metadata>
  <g
     inkscape:label="Layer 1"
     inkscape:groupmode="layer"
     id="layer1"
     transform="translate(349.53321,40.893623)">
    <g
       transform="matrix(14.111111,0,0,-14.111111,-1929.8216,13374.889)"
       id="g2947">
      <path
         inkscape:connector-curvature="0"
         id="path2825"
         d="m 119.88226,935.17271 0.66887,2.45255 3.34437,4.68212 7.58058,2.89845 4.34768,-0.78035 2.56402,-2.22958 -2.6755,-3.12142 -5.57395,-4.01324 -7.13466,-2.22958 -1.78367,-0.44592 -1.22626,0.44592 -0.11148,1.22627 h 0.55739 z"
         style="opacity:1;fill:#c68243;fill-opacity:1;stroke:#000000;stroke-width:0.15000001;stroke-linecap:butt;stroke-linejoin:miter;stroke-miterlimit:4;stroke-dasharray:none;stroke-opacity:1" />
      <path
         inkscape:connector-curvature="0"
         id="path2831"
         d="m 138.38778,942.1959 -1.67219,-1.78366 0.33444,-3.2329 1.50497,-1.50497 1.50497,-0.44592 2.3968,0.16722 2.1181,1.67219 0.16722,0.72462 0.44592,0.61313 0.61313,0.33444 -0.27869,1.22627 z"
         style="opacity:1;fill:#c68243;fill-opacity:1;stroke:#000000;stroke-width:0.15000001;stroke-linecap:butt;stroke-linejoin:miter;stroke-miterlimit:4;stroke-dasharray:none;stroke-opacity:1" />
      <path
         sodipodi:nodetypes="ccccccccccccccc"
         inkscape:connector-curvature="0"
         id="path2833"
         d="m 122.78071,932.94314 1.28201,-0.72462 h 1.50496 l 2.34107,0.52953 0.39017,0.58526 0.80823,-0.0557 1.33775,0.91971 1.4771,0.22295 1.42135,0.86396 1.28202,0.50166 1.282,0.91971 1.14266,0.47378 -0.39018,2.56402 -6.52152,-4.68212 z"
         style="opacity:1;fill:#f1c58b;fill-opacity:1;stroke:#000000;stroke-width:0.15000001;stroke-linecap:butt;stroke-linejoin:miter;stroke-miterlimit:4;stroke-dasharray:none;stroke-opacity:1" />
      <path
         inkscape:connector-curvature="0"
         id="path2837"
         d="m 146.58149,933.22184 1.22627,-0.61314 0.61314,0.5574 0.0557,1.00331 -0.66887,0.72461 -0.83609,-0.16722 v -0.50165 l 0.61313,-0.50166 -0.94757,0.22296 z"
         style="opacity:1;fill:#c68243;fill-opacity:1;stroke:#000000;stroke-width:0.15000001;stroke-linecap:butt;stroke-linejoin:miter;stroke-miterlimit:4;stroke-dasharray:none;stroke-opacity:1" />
      <path
         sodipodi:nodetypes="ccccccc"
         inkscape:connector-curvature="0"
         id="path2839"
         d="m 151.43083,938.9023 0.11148,1.28201 c 0.60224,0.94073 0.65234,0.59313 0.8361,0.55739 0.50187,-0.22289 0.41088,-0.64339 0.50166,-1.00331 l -0.2787,-1.00331 -0.5574,-0.22296 z"
         style="opacity:1;fill:#c68243;fill-opacity:1;stroke:#000000;stroke-width:0.15000001;stroke-linecap:butt;stroke-linejoin:miter;stroke-miterlimit:4;stroke-dasharray:none;stroke-opacity:1" />
      <path
         inkscape:connector-curvature="0"
         id="path2857"
         d="m 148.4766,934.16941 0.80312,-0.092 0.33502,0.11824 -0.0197,0.25619 -0.2823,0.27496 -1.50497,0.16722 z"
         style="opacity:1;fill:#c68243;fill-opacity:1;stroke:#000000;stroke-width:0.15000001;stroke-linecap:butt;stroke-linejoin:miter;stroke-miterlimit:4;stroke-dasharray:none;stroke-opacity:1" />
      <path
         inkscape:connector-curvature="0"
         id="path2835"
         d="m 146.3028,941.74998 0.72461,1.28201 1.00331,1.17054 2.78698,-1.28202 0.89183,-1.8394 0.2787,-0.78035 -0.5574,-2.89846 -0.89183,-1.89515 -1.22627,-0.78035 -1.50497,0.16722 -1.61644,0.66887 -0.50166,1.22628 0.11148,1.95088 -0.27869,1.22627 z"
         style="opacity:1;fill:#c68243;fill-opacity:1;stroke:#000000;stroke-width:0.15000001;stroke-linecap:butt;stroke-linejoin:miter;stroke-miterlimit:4;stroke-dasharray:none;stroke-opacity:1" />
      <path
         sodipodi:nodetypes="ccccccc"
         inkscape:connector-curvature="0"
         id="path2839-7"
         d="m 151.52936,937.79644 0.0129,0.88787 c 0.17008,0.43019 0.45586,0.60006 0.8361,0.55739 0.13244,-0.28105 0.28209,-0.21625 0.36371,-0.9836 -0.0326,-1.05773 -0.1209,-0.69879 -0.21958,-0.9639 -0.0583,-0.1404 -0.17178,-0.23938 -0.43916,-0.22296 -0.14734,0.0551 -0.35687,0.42108 -0.55402,0.7252 z"
         style="opacity:1;fill:#c68243;fill-opacity:1;stroke:#000000;stroke-width:0.15000001;stroke-linecap:butt;stroke-linejoin:miter;stroke-miterlimit:4;stroke-dasharray:none;stroke-opacity:1" />
      <path
         sodipodi:nodetypes="ccccc"
         inkscape:connector-curvature="0"
         id="path2875"
         d="m 146.35854,939.07448 c 0.008,2.89739 0.89261,3.51699 2.00662,3.53946 2.4436,-0.0453 2.54052,-2.10428 2.59189,-3.20502 0.0383,-1.77653 -0.29277,-3.24792 -1.95088,-3.62307 -1.87431,-0.24268 -2.21446,1.58577 -2.64763,3.28863 z"
         style="fill:url(#radialGradient2883);fill-opacity:1;stroke:#6d0000;stroke-width:0.15000001;stroke-linecap:butt;stroke-linejoin:miter;stroke-miterlimit:4;stroke-dasharray:none;stroke-opacity:1" />
      <path
         sodipodi:nodetypes="cccccc"
         inkscape:connector-curvature="0"
         id="path2885"
         d="m 120.39743,936.81704 2.56402,-3.12142 -0.51518,1.58857 -1.14266,1.3935 -0.33443,1.50496 z"
         style="opacity:1;fill:url(#linearGradient2909);fill-opacity:1;stroke:#000000;stroke-width:0.15000001;stroke-linecap:butt;stroke-linejoin:miter;stroke-miterlimit:4;stroke-dasharray:none;stroke-opacity:1" />
      <path
         sodipodi:nodetypes="ccccccccc"
         inkscape:connector-curvature="0"
         id="path2887"
         d="m 122.21573,939.74814 0.50924,-2.20649 1.95088,-3.40011 0.50166,-0.47379 -1.00331,2.1181 0.0836,0.75249 -0.96868,2.93984 -0.41805,1.3935 z"
         style="opacity:1;fill:url(#linearGradient2907);fill-opacity:1;stroke:#000000;stroke-width:0.15000001;stroke-linecap:butt;stroke-linejoin:miter;stroke-miterlimit:4;stroke-dasharray:none;stroke-opacity:1" />
      <path
         sodipodi:nodetypes="cccccccc"
         inkscape:connector-curvature="0"
         id="path2889"
         d="m 123.8955,942.30738 2.1181,-5.32312 1.39349,-2.0345 -0.61313,1.83941 -0.2787,1.70005 -1.00331,2.3968 0.34311,1.98073 z"
         style="opacity:1;fill:url(#linearGradient2905);fill-opacity:1;stroke:#000000;stroke-width:0.15000001;stroke-linecap:butt;stroke-linejoin:miter;stroke-miterlimit:4;stroke-dasharray:none;stroke-opacity:1" />
      <path
         sodipodi:nodetypes="cccccccc"
         inkscape:connector-curvature="0"
         id="path2891"
         d="m 126.97949,943.52606 0.17678,-2.16625 0.94756,-2.92634 1.56071,-2.61975 -0.47378,1.92302 c 0,0 -0.69675,2.09023 -0.8361,2.28532 -0.13934,0.19509 -0.30656,3.81816 -0.30656,3.81816 z"
         style="opacity:1;fill:url(#linearGradient2903);fill-opacity:1;stroke:#000000;stroke-width:0.15000001;stroke-linecap:butt;stroke-linejoin:miter;stroke-miterlimit:4;stroke-dasharray:none;stroke-opacity:1" />
      <path
         sodipodi:nodetypes="ccccccccc"
         inkscape:connector-curvature="0"
         id="path2893"
         d="m 128.99648,944.29372 0.41727,-1.5683 0.97544,-3.06567 1.61645,-2.14597 -0.66888,2.1181 -0.25083,1.83941 -0.0836,1.30987 -0.44592,2.0345 z"
         style="opacity:1;fill:url(#linearGradient2901);fill-opacity:1;stroke:#000000;stroke-width:0.15000001;stroke-linecap:butt;stroke-linejoin:miter;stroke-miterlimit:4;stroke-dasharray:none;stroke-opacity:1" />
      <path
         sodipodi:nodetypes="ccccccccccccccccccccccccccc"
         inkscape:connector-curvature="0"
         id="path2859"
         d="m 142.45677,937.87609 -0.30657,-1.61645 -0.72461,-0.64101 -0.25083,-1.05905 0.19509,-0.78035 1.00331,-0.0836 1.36562,0.41805 1.81154,2.03449 0.86396,0.78036 -0.33444,-2.56403 -0.83609,-2.34106 0.36231,-1.42135 1.30987,-2.87059 2.06237,-2.09024 0.3623,0.19509 -1.70006,1.7558 -0.75248,1.08692 -0.69674,1.95088 0.36231,2.00663 0.41801,1.58858 0.13938,2.81484 -0.0557,0.69675 -0.5574,0.13935 -2.31319,-1.08692 -1.33775,-0.66888 -1.14266,-0.94757 v 0"
         style="opacity:1;fill:#c68243;fill-opacity:1;stroke:#000000;stroke-width:0.15000001;stroke-linecap:butt;stroke-linejoin:miter;stroke-miterlimit:4;stroke-dasharray:none;stroke-opacity:1" />
      <path
         inkscape:connector-curvature="0"
         id="path2863"
         d="m 137.80252,937.65313 h -0.86397 l -0.9197,-0.19509 -1.33775,-1.00331 -3.14928,1.28201 -2.50828,1.22626 -0.69675,-0.11148 -0.44591,-0.69674 -0.75248,-0.72461 -1.03119,-2.17385 -0.41805,-0.75248 -0.52952,-2.00662 -0.30657,-0.36231 -0.27869,-1.05905 -2.00663,-1.22627 -0.66888,-0.2787 -0.52952,-0.44592 -2.34106,-1.05905 -1.67219,-0.641 c 0,0 0.44592,-0.19509 0.58527,-0.19509 0.13935,0 1.58858,0.5574 1.58858,0.5574 l 5.76904,3.17715 1.00331,1.81154 0.94758,2.31319 1.03118,2.6755 0.39017,0.11148 1.28201,-1.28201 0.64101,-0.13935 c 0,0 0.80822,-0.91971 1.05905,-0.97545 0.25083,-0.0557 1.97875,-0.78035 1.97875,-0.78035 l 1.44923,-0.25083 1.44922,1.00331 0.8361,0.8361 0.94758,-0.33444"
         style="opacity:1;fill:#c68243;fill-opacity:1;stroke:#000000;stroke-width:0.15000001;stroke-linecap:butt;stroke-linejoin:miter;stroke-miterlimit:4;stroke-dasharray:none;stroke-opacity:1" />
      <path
         inkscape:connector-curvature="0"
         id="path2861"
         d="m 139.72553,938.34987 0.0557,-1.22627 -0.58527,-0.33443 -0.11148,-1.03119 -0.41805,1.92302 -1.61644,2.6755 -0.94757,0.3623 -0.52953,-0.19508 -0.39018,-0.8361 -0.41805,-1.95088 -0.47378,-2.48042 -0.30657,-2.00661 v -0.8361 l -1.17052,-2.48041 -0.58527,-0.5574 -0.0557,-0.5574 -2.42467,-2.92632 0.50166,0.0836 0.58527,0.50166 1.81153,2.59188 0.61313,0.94758 0.2787,0.80822 0.80823,0.86396 0.25083,0.80823 0.39017,1.11479 0.52953,2.9542 0.3623,2.1181 0.33444,1.25414 0.83609,-2.75911 0.89184,-2.06236 0.66887,-0.86396 0.72461,0.0557 0.58527,0.66888 1.17053,0.72462 0.33444,-0.0836"
         style="opacity:1;fill:#c68243;fill-opacity:1;stroke:#000000;stroke-width:0.15000001;stroke-linecap:butt;stroke-linejoin:miter;stroke-miterlimit:4;stroke-dasharray:none;stroke-opacity:1" />
      <path
         inkscape:connector-curvature="0"
         id="path2867"
         d="m 136.04672,945.59601 -17.22352,4.7936 c 0,0 -0.72461,-0.22296 -1.05905,0.11148 -0.33444,0.33444 -2.73124,0 -2.73124,0 l -1.05905,-0.39018 -0.11148,-0.66887 0.44592,-0.50166 2.17384,-1.61644 5.12804,-1.33775 7.85927,-1.33775 5.51822,0.0557 0.83609,-0.2787"
         style="opacity:0.86799999;fill:#cbd0d0;fill-opacity:1;stroke:#000000;stroke-width:0.15000001;stroke-linecap:butt;stroke-linejoin:miter;stroke-miterlimit:4;stroke-dasharray:none;stroke-opacity:1" />
      <path
         inkscape:connector-curvature="0"
         id="path2913"
         d="m 147.58477,933.72349 c 0.0632,-0.0703 0.0584,-0.17637 0.11151,-0.25083 0.0195,-0.0272 0.0574,-0.0348 0.0836,-0.0557 0.0206,-0.0164 0.0371,-0.0371 0.0557,-0.0557"
         style="fill:none;stroke:#000000;stroke-width:0.075;stroke-linecap:butt;stroke-linejoin:miter;stroke-miterlimit:4;stroke-dasharray:none;stroke-opacity:1" />
      <path
         sodipodi:nodetypes="cccccccccc"
         inkscape:connector-curvature="0"
         id="path2827"
         d="m 135.82376,944.42548 2.56402,-2.22958 2.89846,-1.00331 4.23621,-1.22627 0.78035,1.78366 c 0.22309,0.70604 -0.0389,1.41207 -0.5574,2.11811 -0.90777,1.61779 -1.2332,1.48858 -1.72793,1.86727 -2.36623,0.41035 -3.58445,0.24176 -4.62638,-0.0836 -0.6507,0.51339 -1.47579,0.53318 -3.37224,0.16721 -0.50081,-0.41149 -0.34358,-0.83672 -0.19509,-1.39349 z"
         style="opacity:1;fill:#c68243;fill-opacity:1;stroke:#000000;stroke-width:0.15000001;stroke-linecap:butt;stroke-linejoin:miter;stroke-miterlimit:4;stroke-dasharray:none;stroke-opacity:1" />
      <path
         inkscape:connector-curvature="0"
         id="path2917"
         d="m 139.39109,945.65176 -0.44591,-2.78699 0.66887,-1.00331 1.39349,-0.39017"
         style="fill:none;stroke:#000000;stroke-width:0.075;stroke-linecap:butt;stroke-linejoin:miter;stroke-miterlimit:4;stroke-dasharray:none;stroke-opacity:1" />
      <path
         inkscape:connector-curvature="0"
         id="path2869"
         d="m 141.00754,941.47129 -5.57395,0.83609 -3.2329,0.72461 -7.35762,0.50166 -7.30188,1.17053 -3.17715,1.39349 -1.95088,1.33775 -0.33444,1.22627 0.94757,0.39017 1.78366,0.2787 1.67219,-0.22296 4.5149,-0.94757 5.57396,-1.83941 9.41998,-2.84271 z"
         style="opacity:0.86799999;fill:#cbd0d0;fill-opacity:1;stroke:#000000;stroke-width:0.15000001;stroke-linecap:butt;stroke-linejoin:miter;stroke-miterlimit:4;stroke-dasharray:none;stroke-opacity:1" />
      <path
         sodipodi:nodetypes="cc"
         inkscape:connector-curvature="0"
         id="path2919"
         d="m 139.08448,935.75798 c 0.26753,-0.73254 0.34358,-1.0958 0.24326,-1.11892"
         style="fill:none;stroke:#000000;stroke-width:0.075;stroke-linecap:butt;stroke-linejoin:miter;stroke-miterlimit:4;stroke-dasharray:none;stroke-opacity:1" />
      <path
         sodipodi:nodetypes="cccc"
         inkscape:connector-curvature="0"
         id="path2921"
         d="m 119.88226,935.17271 c -0.11383,-0.1448 -0.23711,-0.28285 -0.22499,-0.51762 0.0983,-0.0641 0.26641,0.0348 0.41682,0.0924 z"
         style="fill:#a4774d;fill-opacity:1;stroke:#000000;stroke-width:0.075;stroke-linecap:butt;stroke-linejoin:miter;stroke-miterlimit:4;stroke-dasharray:none;stroke-opacity:1" />
    </g>
  </g>
</svg>
